SplineFontDB: 3.2
FontName: MaterialDesignIcons
FullName: Material Design Icons
FamilyName: Material Design Icons
Weight: Book
Version: 1.0
ItalicAngle: 0
UnderlinePosition: 5
UnderlineWidth: 0
Ascent: 448
Descent: 64
InvalidEm: 0
sfntRevision: 0x00010000
woffMajor: 1
woffMinor: 0
LayerCount: 2
Layer: 0 1 "Back" 1
Layer: 1 1 "Fore" 0
XUID: [1021 352 800917463 14740636]
StyleMap: 0x0040
FSType: 0
OS2Version: 1
OS2_WeightWidthSlopeOnly: 0
OS2_UseTypoMetrics: 0
CreationTime: -2082844800
ModificationTime: 1600330205
PfmFamily: 17
TTFWeight: 400
TTFWidth: 5
LineGap: 0
VLineGap: 0
Panose: 2 0 5 3 0 0 0 0 0 0
OS2TypoAscent: 448
OS2TypoAOffset: 0
OS2TypoDescent: -64
OS2TypoDOffset: 0
OS2TypoLinegap: 46
OS2WinAscent: 453
OS2WinAOffset: 0
OS2WinDescent: 66
OS2WinDOffset: 0
HheadAscent: 448
HheadAOffset: 0
HheadDescent: -64
HheadDOffset: 0
OS2SubXSize: 324
OS2SubYSize: 358
OS2SubXOff: 0
OS2SubYOff: 71
OS2SupXSize: 324
OS2SupYSize: 358
OS2SupXOff: 0
OS2SupYOff: 245
OS2StrikeYSize: 25
OS2StrikeYPos: 132
OS2Vendor: 'PfEd'
OS2CodePages: 00000001.00000000
OS2UnicodeRanges: 00000000.00000000.00000000.00000000
Lookup: 4 0 1 "'liga' Standard Ligatures in Latin lookup 0" { "'liga' Standard Ligatures in Latin lookup 0 subtable"  } [' RQD' ('DFLT' <'dflt' > 'latn' <'dflt' > ) 'liga' ('DFLT' <'dflt' > 'latn' <'dflt' > ) ]
DEI: 91125
ShortTable: maxp 16
  1
  0
  5540
  287
  45
  0
  0
  2
  0
  10
  10
  0
  255
  0
  0
  0
EndShort
LangName: 1033 "" "" "Regular" "Material Design Icons" "" "Version 1.0" "" "" "" "" "Generated by svg2ttf from Fontello project." "http://fontello.com"
Encoding: UnicodeFull
UnicodeInterp: none
NameList: AGL For New Fonts
DisplaySize: -48
AntiAlias: 1
FitToEm: 0
WinInfo: 988390 26 9
BeginChars: 1114113 51

StartChar: lotion
Encoding: 988546 988546 1
Width: 512
Flags: W
LayerCount: 2
Fore
SplineSet
331 309 m 0,0,1
 331 317 331 317 339 331 c 0,2,3
 345 341 345 341 354 353 c 2,4,-1
 363 363 l 1,5,-1
 371 353 l 2,6,7
 380 341 380 341 386 331 c 0,8,9
 395 317 395 317 395 309 c 0,10,11
 395 296 395 296 385.5 286.5 c 128,-1,12
 376 277 376 277 362.5 277 c 128,-1,13
 349 277 349 277 340 286.5 c 128,-1,14
 331 296 331 296 331 309 c 0,0,1
416 128 m 256,15,16
 438 128 438 128 453.5 143.5 c 128,-1,17
 469 159 469 159 469 181 c 0,18,19
 469 197 469 197 456 222 c 0,20,21
 446 240 446 240 430 260 c 2,22,-1
 416 277 l 1,23,-1
 402 260 l 2,24,25
 386 240 386 240 376 222 c 0,26,27
 363 197 363 197 363 181 c 0,28,29
 363 159 363 159 378.5 143.5 c 128,-1,30
 394 128 394 128 416 128 c 256,15,16
341 192 m 2,31,-1
 341 -21 l 1,32,-1
 85 -21 l 1,33,-1
 85 192 l 2,34,35
 85 239 85 239 115.5 274.5 c 128,-1,36
 146 310 146 310 192 318 c 1,37,-1
 192 363 l 1,38,-1
 149 363 l 1,39,-1
 149 405 l 1,40,-1
 277 405 l 2,41,42
 312 405 312 405 341 384 c 1,43,-1
 311 353 l 1,44,45
 295 363 295 363 277 363 c 2,46,-1
 235 363 l 1,47,-1
 235 318 l 1,48,49
 280 310 280 310 310.5 274.5 c 128,-1,50
 341 239 341 239 341 192 c 2,31,-1
EndSplineSet
EndChar

StartChar: lotion-outline
Encoding: 988547 988547 2
Width: 512
Flags: W
LayerCount: 2
Fore
SplineSet
331 309 m 0,0,1
 331 317 331 317 339 331 c 0,2,3
 345 341 345 341 354 353 c 2,4,-1
 363 363 l 1,5,-1
 371 353 l 2,6,7
 380 341 380 341 386 331 c 0,8,9
 395 317 395 317 395 309 c 0,10,11
 395 296 395 296 385.5 286.5 c 128,-1,12
 376 277 376 277 362.5 277 c 128,-1,13
 349 277 349 277 340 286.5 c 128,-1,14
 331 296 331 296 331 309 c 0,0,1
416 128 m 256,15,16
 438 128 438 128 453.5 143.5 c 128,-1,17
 469 159 469 159 469 181 c 0,18,19
 469 197 469 197 456 222 c 0,20,21
 446 240 446 240 430 260 c 2,22,-1
 416 277 l 1,23,-1
 402 260 l 2,24,25
 386 240 386 240 376 222 c 0,26,27
 363 197 363 197 363 181 c 0,28,29
 363 159 363 159 378.5 143.5 c 128,-1,30
 394 128 394 128 416 128 c 256,15,16
341 192 m 2,31,-1
 341 21 l 2,32,33
 341 4 341 4 328.5 -8.5 c 128,-1,34
 316 -21 316 -21 299 -21 c 2,35,-1
 128 -21 l 2,36,37
 110 -21 110 -21 97.5 -8.5 c 128,-1,38
 85 4 85 4 85 21 c 2,39,-1
 85 192 l 2,40,41
 85 239 85 239 115.5 274.5 c 128,-1,42
 146 310 146 310 192 318 c 1,43,-1
 192 363 l 1,44,-1
 149 363 l 1,45,-1
 149 405 l 1,46,-1
 277 405 l 2,47,48
 312 405 312 405 341 384 c 1,49,-1
 311 353 l 1,50,51
 295 363 295 363 277 363 c 2,52,-1
 235 363 l 1,53,-1
 235 318 l 1,54,55
 280 310 280 310 310.5 274.5 c 128,-1,56
 341 239 341 239 341 192 c 2,31,-1
299 192 m 2,57,58
 299 227 299 227 274 252 c 128,-1,59
 249 277 249 277 213.5 277 c 128,-1,60
 178 277 178 277 153 252 c 128,-1,61
 128 227 128 227 128 192 c 2,62,-1
 128 21 l 1,63,-1
 299 21 l 1,64,-1
 299 192 l 2,57,58
EndSplineSet
EndChar

StartChar: lotion-plus
Encoding: 988548 988548 3
Width: 512
Flags: W
LayerCount: 2
Fore
SplineSet
331 309 m 0,0,1
 331 317 331 317 339 331 c 0,2,3
 345 341 345 341 354 353 c 2,4,-1
 363 363 l 1,5,-1
 371 353 l 2,6,7
 380 341 380 341 386 331 c 0,8,9
 395 317 395 317 395 309 c 0,10,11
 395 296 395 296 385.5 286.5 c 128,-1,12
 376 277 376 277 362.5 277 c 128,-1,13
 349 277 349 277 340 286.5 c 128,-1,14
 331 296 331 296 331 309 c 0,0,1
416 128 m 256,15,16
 438 128 438 128 453.5 143.5 c 128,-1,17
 469 159 469 159 469 181 c 0,18,19
 469 197 469 197 456 222 c 0,20,21
 446 240 446 240 430 260 c 2,22,-1
 416 277 l 1,23,-1
 402 260 l 2,24,25
 386 240 386 240 376 222 c 0,26,27
 363 197 363 197 363 181 c 0,28,29
 363 159 363 159 378.5 143.5 c 128,-1,30
 394 128 394 128 416 128 c 256,15,16
277 149 m 1,31,-1
 235 149 l 1,32,-1
 235 192 l 1,33,-1
 192 192 l 1,34,-1
 192 149 l 1,35,-1
 149 149 l 1,36,-1
 149 107 l 1,37,-1
 192 107 l 1,38,-1
 192 64 l 1,39,-1
 235 64 l 1,40,-1
 235 107 l 1,41,-1
 277 107 l 1,42,-1
 277 149 l 1,31,-1
341 192 m 2,43,-1
 341 -21 l 1,44,-1
 85 -21 l 1,45,-1
 85 192 l 2,46,47
 85 239 85 239 115.5 274.5 c 128,-1,48
 146 310 146 310 192 318 c 1,49,-1
 192 363 l 1,50,-1
 149 363 l 1,51,-1
 149 405 l 1,52,-1
 277 405 l 2,53,54
 312 405 312 405 341 384 c 1,55,-1
 311 353 l 1,56,57
 295 363 295 363 277 363 c 2,58,-1
 235 363 l 1,59,-1
 235 318 l 1,60,61
 280 310 280 310 310.5 274.5 c 128,-1,62
 341 239 341 239 341 192 c 2,43,-1
EndSplineSet
EndChar

StartChar: lotion-plus-outline
Encoding: 988549 988549 4
Width: 512
Flags: W
LayerCount: 2
Fore
SplineSet
331 309 m 0,0,1
 331 317 331 317 339 331 c 0,2,3
 345 341 345 341 354 353 c 2,4,-1
 363 363 l 1,5,-1
 371 353 l 2,6,7
 380 341 380 341 386 331 c 0,8,9
 395 317 395 317 395 309 c 0,10,11
 395 296 395 296 385.5 286.5 c 128,-1,12
 376 277 376 277 362.5 277 c 128,-1,13
 349 277 349 277 340 286.5 c 128,-1,14
 331 296 331 296 331 309 c 0,0,1
416 128 m 256,15,16
 438 128 438 128 453.5 143.5 c 128,-1,17
 469 159 469 159 469 181 c 0,18,19
 469 197 469 197 456 222 c 0,20,21
 446 240 446 240 430 260 c 2,22,-1
 416 277 l 1,23,-1
 402 260 l 2,24,25
 386 240 386 240 376 222 c 0,26,27
 363 197 363 197 363 181 c 0,28,29
 363 159 363 159 378.5 143.5 c 128,-1,30
 394 128 394 128 416 128 c 256,15,16
277 149 m 1,31,-1
 235 149 l 1,32,-1
 235 192 l 1,33,-1
 192 192 l 1,34,-1
 192 149 l 1,35,-1
 149 149 l 1,36,-1
 149 107 l 1,37,-1
 192 107 l 1,38,-1
 192 64 l 1,39,-1
 235 64 l 1,40,-1
 235 107 l 1,41,-1
 277 107 l 1,42,-1
 277 149 l 1,31,-1
341 192 m 2,43,-1
 341 21 l 2,44,45
 341 4 341 4 328.5 -8.5 c 128,-1,46
 316 -21 316 -21 299 -21 c 2,47,-1
 128 -21 l 2,48,49
 110 -21 110 -21 97.5 -8.5 c 128,-1,50
 85 4 85 4 85 21 c 2,51,-1
 85 192 l 2,52,53
 85 239 85 239 115.5 274.5 c 128,-1,54
 146 310 146 310 192 318 c 1,55,-1
 192 363 l 1,56,-1
 149 363 l 1,57,-1
 149 405 l 1,58,-1
 277 405 l 2,59,60
 312 405 312 405 341 384 c 1,61,-1
 311 353 l 1,62,63
 295 363 295 363 277 363 c 2,64,-1
 235 363 l 1,65,-1
 235 318 l 1,66,67
 280 310 280 310 310.5 274.5 c 128,-1,68
 341 239 341 239 341 192 c 2,43,-1
299 192 m 2,69,70
 299 227 299 227 274 252 c 128,-1,71
 249 277 249 277 213.5 277 c 128,-1,72
 178 277 178 277 153 252 c 128,-1,73
 128 227 128 227 128 192 c 2,74,-1
 128 21 l 1,75,-1
 299 21 l 1,76,-1
 299 192 l 2,69,70
EndSplineSet
EndChar

StartChar: face-mask
Encoding: 988550 988550 5
Width: 512
Flags: W
LayerCount: 2
Fore
SplineSet
432 320 m 0,0,1
 409 320 409 320 392 304 c 128,-1,2
 375 288 375 288 373 265 c 1,3,-1
 268 295 l 2,4,5
 256 299 256 299 244 295 c 2,6,-1
 139 265 l 1,7,8
 137 288 137 288 120 304 c 128,-1,9
 103 320 103 320 79.5 320 c 128,-1,10
 56 320 56 320 38.5 303 c 128,-1,11
 21 286 21 286 21 261 c 2,12,-1
 21 187 l 2,13,14
 21 162 21 162 38.5 145 c 128,-1,15
 56 128 56 128 80 128 c 2,16,-1
 121 128 l 1,17,18
 140 90 140 90 176 66.5 c 128,-1,19
 212 43 212 43 256 43 c 128,-1,20
 300 43 300 43 336 66.5 c 128,-1,21
 372 90 372 90 391 128 c 1,22,-1
 432 128 l 2,23,24
 456 128 456 128 473.5 145 c 128,-1,25
 491 162 491 162 491 187 c 2,26,-1
 491 261 l 2,27,28
 491 286 491 286 473.5 303 c 128,-1,29
 456 320 456 320 432 320 c 0,0,1
107 160 m 1,30,-1
 80 160 l 2,31,32
 69 160 69 160 61 168 c 128,-1,33
 53 176 53 176 53 187 c 2,34,-1
 53 261 l 2,35,36
 53 272 53 272 61 280 c 128,-1,37
 69 288 69 288 80 288 c 128,-1,38
 91 288 91 288 99 280 c 128,-1,39
 107 272 107 272 107 261 c 2,40,-1
 107 160 l 1,30,-1
320 192 m 1,41,-1
 265 207 l 2,42,43
 254 210 254 210 247 207 c 2,44,-1
 192 192 l 1,45,-1
 192 213 l 1,46,-1
 241 228 l 2,47,48
 254 232 254 232 271 228 c 2,49,-1
 320 213 l 1,50,-1
 320 192 l 1,41,-1
459 187 m 2,51,52
 459 176 459 176 451 168 c 128,-1,53
 443 160 443 160 432 160 c 2,54,-1
 405 160 l 1,55,-1
 405 261 l 2,56,57
 405 272 405 272 413 280 c 128,-1,58
 421 288 421 288 432 288 c 128,-1,59
 443 288 443 288 451 280 c 128,-1,60
 459 272 459 272 459 261 c 2,61,-1
 459 187 l 2,51,52
EndSplineSet
EndChar

StartChar: face-mask-outline
Encoding: 988551 988551 6
Width: 512
Flags: W
LayerCount: 2
Fore
SplineSet
320 192 m 1,0,-1
 265 207 l 2,1,2
 254 210 254 210 247 207 c 2,3,-1
 192 192 l 1,4,-1
 192 213 l 1,5,-1
 241 228 l 2,6,7
 254 232 254 232 271 228 c 2,8,-1
 320 213 l 1,9,-1
 320 192 l 1,0,-1
432 320 m 0,10,11
 409 320 409 320 392 304 c 128,-1,12
 375 288 375 288 373 265 c 1,13,-1
 268 295 l 2,14,15
 262 297 262 297 256 297 c 128,-1,16
 250 297 250 297 244 295 c 2,17,-1
 139 265 l 1,18,19
 137 288 137 288 120 304 c 128,-1,20
 103 320 103 320 79.5 320 c 128,-1,21
 56 320 56 320 38.5 303 c 128,-1,22
 21 286 21 286 21 261 c 2,23,-1
 21 187 l 2,24,25
 21 162 21 162 38.5 145 c 128,-1,26
 56 128 56 128 80 128 c 2,27,-1
 121 128 l 1,28,29
 140 90 140 90 176 66.5 c 128,-1,30
 212 43 212 43 256 43 c 128,-1,31
 300 43 300 43 336 66.5 c 128,-1,32
 372 90 372 90 391 128 c 1,33,-1
 432 128 l 2,34,35
 456 128 456 128 473.5 145 c 128,-1,36
 491 162 491 162 491 187 c 2,37,-1
 491 261 l 2,38,39
 491 286 491 286 473.5 303 c 128,-1,40
 456 320 456 320 432 320 c 0,10,11
107 160 m 1,41,-1
 80 160 l 2,42,43
 69 160 69 160 61 168 c 128,-1,44
 53 176 53 176 53 187 c 2,45,-1
 53 261 l 2,46,47
 53 272 53 272 61 280 c 128,-1,48
 69 288 69 288 80 288 c 128,-1,49
 91 288 91 288 99 280 c 128,-1,50
 107 272 107 272 107 261 c 2,51,-1
 107 160 l 1,41,-1
363 192 m 2,52,53
 363 163 363 163 348.5 138.5 c 128,-1,54
 334 114 334 114 309.5 99.5 c 128,-1,55
 285 85 285 85 256 85 c 128,-1,56
 227 85 227 85 202.5 99.5 c 128,-1,57
 178 114 178 114 163.5 138.5 c 128,-1,58
 149 163 149 163 149 192 c 2,59,-1
 149 224 l 1,60,-1
 256 254 l 1,61,-1
 363 224 l 1,62,-1
 363 192 l 2,52,53
459 187 m 2,63,64
 459 176 459 176 451 168 c 128,-1,65
 443 160 443 160 432 160 c 2,66,-1
 405 160 l 1,67,-1
 405 261 l 2,68,69
 405 272 405 272 413 280 c 128,-1,70
 421 288 421 288 432 288 c 128,-1,71
 443 288 443 288 451 280 c 128,-1,72
 459 272 459 272 459 261 c 2,73,-1
 459 187 l 2,63,64
EndSplineSet
EndChar

StartChar: reiterate
Encoding: 988552 988552 7
Width: 512
Flags: W
LayerCount: 2
Fore
SplineSet
224 363 m 0,0,1
 188 363 188 363 157.5 346 c 128,-1,2
 127 329 127 329 107.5 299.5 c 128,-1,3
 88 270 88 270 85 235 c 1,4,-1
 21 235 l 1,5,-1
 107 149 l 1,6,-1
 192 235 l 1,7,-1
 129 235 l 1,8,9
 133 271 133 271 160 295.5 c 128,-1,10
 187 320 187 320 224 320 c 0,11,12
 264 320 264 320 292 292 c 128,-1,13
 320 264 320 264 320 224 c 128,-1,14
 320 184 320 184 292 156 c 128,-1,15
 264 128 264 128 224 128 c 2,16,-1
 43 128 l 1,17,-1
 43 85 l 1,18,-1
 224 85 l 2,19,20
 262 85 262 85 293.5 104 c 128,-1,21
 325 123 325 123 344 154.5 c 128,-1,22
 363 186 363 186 363 224 c 128,-1,23
 363 262 363 262 344 293.5 c 128,-1,24
 325 325 325 325 293.5 344 c 128,-1,25
 262 363 262 363 224 363 c 0,0,1
405 192 m 1,26,-1
 405 128 l 1,27,-1
 352 128 l 1,28,29
 332 102 332 102 304 85 c 1,30,-1
 405 85 l 1,31,-1
 405 21 l 1,32,-1
 491 107 l 1,33,-1
 405 192 l 1,26,-1
EndSplineSet
EndChar

StartChar: butterfly
Encoding: 988553 988553 8
Width: 512
Flags: W
LayerCount: 2
Fore
SplineSet
277 0 m 1,0,-1
 235 0 l 1,1,-1
 235 320 l 1,2,-1
 193 363 l 1,3,-1
 213 384 l 1,4,-1
 256 341 l 1,5,-1
 299 384 l 1,6,-1
 320 363 l 1,7,-1
 277 320 l 1,8,-1
 277 0 l 1,0,-1
149 320 m 0,9,10
 120 320 120 320 95.5 305.5 c 128,-1,11
 71 291 71 291 57 266.5 c 128,-1,12
 43 242 43 242 43 213 c 0,13,14
 43 188 43 188 54.5 165.5 c 128,-1,15
 66 143 66 143 85 128 c 1,16,-1
 85 85 l 2,17,18
 85 50 85 50 110 25 c 128,-1,19
 135 0 135 0 171 0 c 0,20,21
 193 0 193 0 213 11 c 1,22,-1
 213 12 l 1,23,-1
 213 299 l 1,24,25
 185 320 185 320 149 320 c 0,9,10
139 181 m 1,26,-1
 107 213 l 1,27,-1
 139 245 l 1,28,-1
 171 213 l 1,29,-1
 139 181 l 1,26,-1
469 213 m 0,30,31
 469 242 469 242 455 266.5 c 128,-1,32
 441 291 441 291 416.5 305.5 c 128,-1,33
 392 320 392 320 363 320 c 0,34,35
 327 320 327 320 299 299 c 1,36,-1
 299 12 l 1,37,38
 318 0 318 0 341 0 c 0,39,40
 377 0 377 0 402 25 c 128,-1,41
 427 50 427 50 427 85 c 2,42,-1
 427 128 l 1,43,44
 446 143 446 143 457.5 165.5 c 128,-1,45
 469 188 469 188 469 213 c 0,30,31
373 181 m 1,46,-1
 341 213 l 1,47,-1
 373 245 l 1,48,-1
 405 213 l 1,49,-1
 373 181 l 1,46,-1
EndSplineSet
EndChar

StartChar: butterfly-outline
Encoding: 988554 988554 9
Width: 512
Flags: W
LayerCount: 2
Fore
SplineSet
277 0 m 1,0,-1
 235 0 l 1,1,-1
 235 320 l 1,2,-1
 193 363 l 1,3,-1
 213 384 l 1,4,-1
 256 341 l 1,5,-1
 299 384 l 1,6,-1
 320 363 l 1,7,-1
 277 320 l 1,8,-1
 277 0 l 1,0,-1
299 256 m 1,9,-1
 299 256 l 1,10,-1
 299 299 l 1,11,12
 327 320 327 320 363 320 c 0,13,14
 392 320 392 320 416.5 305.5 c 128,-1,15
 441 291 441 291 455 266.5 c 128,-1,16
 469 242 469 242 469 213 c 0,17,18
 469 188 469 188 457.5 165.5 c 128,-1,19
 446 143 446 143 427 128 c 1,20,-1
 427 85 l 2,21,22
 427 50 427 50 402 25 c 128,-1,23
 377 0 377 0 341 0 c 0,24,25
 318 0 318 0 299 12 c 1,26,-1
 299 54 l 1,27,28
 318 43 318 43 341 43 c 0,29,30
 359 43 359 43 371.5 55.5 c 128,-1,31
 384 68 384 68 384 85 c 2,32,-1
 384 153 l 1,33,34
 403 160 403 160 415 176.5 c 128,-1,35
 427 193 427 193 427 213 c 0,36,37
 427 240 427 240 408 258.5 c 128,-1,38
 389 277 389 277 363 277 c 1,39,-1
 363 277 l 1,40,41
 327 277 327 277 299 256 c 1,9,-1
213 256 m 1,42,-1
 213 256 l 1,43,44
 185 277 185 277 149 277 c 1,45,-1
 149 277 l 1,46,47
 123 277 123 277 104 258.5 c 128,-1,48
 85 240 85 240 85 213 c 0,49,50
 85 193 85 193 97 176.5 c 128,-1,51
 109 160 109 160 128 153 c 1,52,-1
 128 85 l 2,53,54
 128 68 128 68 140.5 55.5 c 128,-1,55
 153 43 153 43 171 43 c 0,56,57
 194 43 194 43 213 54 c 1,58,-1
 213 12 l 1,59,60
 194 0 194 0 171 0 c 0,61,62
 135 0 135 0 110 25 c 128,-1,63
 85 50 85 50 85 85 c 2,64,-1
 85 128 l 1,65,66
 66 143 66 143 54.5 165.5 c 128,-1,67
 43 188 43 188 43 213 c 0,68,69
 43 242 43 242 57 266.5 c 128,-1,70
 71 291 71 291 95.5 305.5 c 128,-1,71
 120 320 120 320 149 320 c 0,72,73
 185 320 185 320 213 299 c 1,74,-1
 213 256 l 1,42,-1
192 213 m 1,75,-1
 160 245 l 1,76,-1
 128 213 l 1,77,-1
 160 181 l 1,78,-1
 192 213 l 1,75,-1
384 213 m 1,79,-1
 352 245 l 1,80,-1
 320 213 l 1,81,-1
 352 181 l 1,82,-1
 384 213 l 1,79,-1
EndSplineSet
EndChar

StartChar: bag-suitcase
Encoding: 988555 988555 10
Width: 512
Flags: W
LayerCount: 2
Fore
SplineSet
363 320 m 2,0,1
 381 320 381 320 393 307.5 c 128,-1,2
 405 295 405 295 405 277 c 2,3,-1
 405 43 l 2,4,5
 405 25 405 25 393 12.5 c 128,-1,6
 381 0 381 0 363 0 c 1,7,8
 363 -9 363 -9 356.5 -15 c 128,-1,9
 350 -21 350 -21 341.5 -21 c 128,-1,10
 333 -21 333 -21 326.5 -15 c 128,-1,11
 320 -9 320 -9 320 0 c 1,12,-1
 192 0 l 1,13,14
 192 -9 192 -9 185.5 -15 c 128,-1,15
 179 -21 179 -21 170.5 -21 c 128,-1,16
 162 -21 162 -21 155.5 -15 c 128,-1,17
 149 -9 149 -9 149 0 c 1,18,19
 131 0 131 0 119 12.5 c 128,-1,20
 107 25 107 25 107 43 c 2,21,-1
 107 277 l 2,22,23
 107 295 107 295 119 307.5 c 128,-1,24
 131 320 131 320 149 320 c 2,25,-1
 192 320 l 1,26,-1
 192 384 l 2,27,28
 192 393 192 393 198.5 399 c 128,-1,29
 205 405 205 405 213 405 c 2,30,-1
 299 405 l 2,31,32
 307 405 307 405 313.5 399 c 128,-1,33
 320 393 320 393 320 384 c 2,34,-1
 320 320 l 1,35,-1
 363 320 l 2,0,1
288 320 m 1,36,-1
 288 373 l 1,37,-1
 224 373 l 1,38,-1
 224 320 l 1,39,-1
 288 320 l 1,36,-1
171 256 m 1,40,-1
 171 64 l 1,41,-1
 203 64 l 1,42,-1
 203 256 l 1,43,-1
 171 256 l 1,40,-1
309 256 m 1,44,-1
 309 64 l 1,45,-1
 341 64 l 1,46,-1
 341 256 l 1,47,-1
 309 256 l 1,44,-1
240 256 m 1,48,-1
 240 64 l 1,49,-1
 272 64 l 1,50,-1
 272 256 l 1,51,-1
 240 256 l 1,48,-1
EndSplineSet
EndChar

StartChar: bag-suitcase-outline
Encoding: 988556 988556 11
Width: 512
Flags: W
LayerCount: 2
Fore
SplineSet
203 64 m 1,0,-1
 203 256 l 1,1,-1
 171 256 l 1,2,-1
 171 64 l 1,3,-1
 203 64 l 1,0,-1
272 64 m 1,4,-1
 272 256 l 1,5,-1
 240 256 l 1,6,-1
 240 64 l 1,7,-1
 272 64 l 1,4,-1
341 64 m 1,8,-1
 341 256 l 1,9,-1
 309 256 l 1,10,-1
 309 64 l 1,11,-1
 341 64 l 1,8,-1
363 320 m 2,12,13
 381 320 381 320 393 307.5 c 128,-1,14
 405 295 405 295 405 277 c 2,15,-1
 405 43 l 2,16,17
 405 25 405 25 393 12.5 c 128,-1,18
 381 0 381 0 363 0 c 1,19,20
 363 -9 363 -9 356.5 -15 c 128,-1,21
 350 -21 350 -21 341.5 -21 c 128,-1,22
 333 -21 333 -21 326.5 -15 c 128,-1,23
 320 -9 320 -9 320 0 c 1,24,-1
 192 0 l 1,25,26
 192 -9 192 -9 185.5 -15 c 128,-1,27
 179 -21 179 -21 170.5 -21 c 128,-1,28
 162 -21 162 -21 155.5 -15 c 128,-1,29
 149 -9 149 -9 149 0 c 1,30,31
 131 0 131 0 119 12.5 c 128,-1,32
 107 25 107 25 107 43 c 2,33,-1
 107 277 l 2,34,35
 107 295 107 295 119 307.5 c 128,-1,36
 131 320 131 320 149 320 c 2,37,-1
 192 320 l 1,38,-1
 192 384 l 2,39,40
 192 393 192 393 198.5 399 c 128,-1,41
 205 405 205 405 213 405 c 2,42,-1
 299 405 l 2,43,44
 307 405 307 405 313.5 399 c 128,-1,45
 320 393 320 393 320 384 c 2,46,-1
 320 320 l 1,47,-1
 363 320 l 2,12,13
224 373 m 1,48,-1
 224 320 l 1,49,-1
 288 320 l 1,50,-1
 288 373 l 1,51,-1
 224 373 l 1,48,-1
363 43 m 1,52,-1
 363 277 l 1,53,-1
 149 277 l 1,54,-1
 149 43 l 1,55,-1
 363 43 l 1,52,-1
EndSplineSet
EndChar

StartChar: bag-suitcase-off
Encoding: 988557 988557 12
Width: 512
Flags: W
LayerCount: 2
Fore
SplineSet
43 346 m 1,0,-1
 70 373 l 1,1,-1
 448 -5 l 1,2,-1
 421 -32 l 1,3,-1
 384 5 l 1,4,5
 375 0 375 0 363 0 c 1,6,7
 363 -9 363 -9 356.5 -15 c 128,-1,8
 350 -21 350 -21 341.5 -21 c 128,-1,9
 333 -21 333 -21 326.5 -15 c 128,-1,10
 320 -9 320 -9 320 0 c 1,11,-1
 192 0 l 1,12,13
 192 -9 192 -9 185.5 -15 c 128,-1,14
 179 -21 179 -21 170.5 -21 c 128,-1,15
 162 -21 162 -21 155.5 -15 c 128,-1,16
 149 -9 149 -9 149 0 c 1,17,18
 131 0 131 0 119 12.5 c 128,-1,19
 107 25 107 25 107 43 c 2,20,-1
 107 282 l 1,21,-1
 43 346 l 1,0,-1
363 320 m 2,22,23
 381 320 381 320 393 307.5 c 128,-1,24
 405 295 405 295 405 277 c 2,25,-1
 405 92 l 1,26,-1
 341 156 l 1,27,-1
 341 256 l 1,28,-1
 309 256 l 1,29,-1
 309 188 l 1,30,-1
 272 225 l 1,31,-1
 272 256 l 1,32,-1
 241 256 l 1,33,-1
 177 320 l 1,34,-1
 192 320 l 1,35,-1
 192 384 l 2,36,37
 192 393 192 393 198.5 399 c 128,-1,38
 205 405 205 405 213 405 c 2,39,-1
 299 405 l 2,40,41
 307 405 307 405 313.5 399 c 128,-1,42
 320 393 320 393 320 384 c 2,43,-1
 320 320 l 1,44,-1
 363 320 l 2,22,23
171 64 m 1,45,-1
 203 64 l 1,46,-1
 203 186 l 1,47,-1
 171 218 l 1,48,-1
 171 64 l 1,45,-1
240 64 m 1,49,-1
 272 64 l 1,50,-1
 272 117 l 1,51,-1
 240 149 l 1,52,-1
 240 64 l 1,49,-1
309 64 m 1,53,-1
 325 64 l 1,54,-1
 309 80 l 1,55,-1
 309 64 l 1,53,-1
288 320 m 1,56,-1
 288 373 l 1,57,-1
 224 373 l 1,58,-1
 224 320 l 1,59,-1
 288 320 l 1,56,-1
EndSplineSet
EndChar

StartChar: bag-suitcase-off-outline
Encoding: 988558 988558 13
Width: 512
Flags: W
LayerCount: 2
Fore
SplineSet
43 346 m 1,0,-1
 70 373 l 1,1,-1
 448 -5 l 1,2,-1
 421 -32 l 1,3,-1
 384 5 l 1,4,5
 375 0 375 0 363 0 c 1,6,7
 363 -9 363 -9 356.5 -15 c 128,-1,8
 350 -21 350 -21 341.5 -21 c 128,-1,9
 333 -21 333 -21 326.5 -15 c 128,-1,10
 320 -9 320 -9 320 0 c 1,11,-1
 192 0 l 1,12,13
 192 -9 192 -9 185.5 -15 c 128,-1,14
 179 -21 179 -21 170.5 -21 c 128,-1,15
 162 -21 162 -21 155.5 -15 c 128,-1,16
 149 -9 149 -9 149 0 c 1,17,18
 131 0 131 0 119 12.5 c 128,-1,19
 107 25 107 25 107 43 c 2,20,-1
 107 282 l 1,21,-1
 43 346 l 1,0,-1
203 64 m 1,22,-1
 171 64 l 1,23,-1
 171 218 l 1,24,-1
 149 240 l 1,25,-1
 149 43 l 1,26,-1
 346 43 l 1,27,-1
 325 64 l 1,28,-1
 309 64 l 1,29,-1
 309 80 l 1,30,-1
 272 117 l 1,31,-1
 272 64 l 1,32,-1
 240 64 l 1,33,-1
 240 149 l 1,34,-1
 203 186 l 1,35,-1
 203 64 l 1,22,-1
272 256 m 1,36,-1
 272 225 l 1,37,-1
 241 256 l 1,38,-1
 272 256 l 1,36,-1
309 256 m 1,39,-1
 341 256 l 1,40,-1
 341 156 l 1,41,-1
 309 188 l 1,42,-1
 309 256 l 1,39,-1
363 320 m 2,43,44
 381 320 381 320 393 307.5 c 128,-1,45
 405 295 405 295 405 277 c 2,46,-1
 405 92 l 1,47,-1
 363 134 l 1,48,-1
 363 277 l 1,49,-1
 220 277 l 1,50,-1
 177 320 l 1,51,-1
 192 320 l 1,52,-1
 192 384 l 2,53,54
 192 393 192 393 198.5 399 c 128,-1,55
 205 405 205 405 213 405 c 2,56,-1
 299 405 l 2,57,58
 307 405 307 405 313.5 399 c 128,-1,59
 320 393 320 393 320 384 c 2,60,-1
 320 320 l 1,61,-1
 363 320 l 2,43,44
224 373 m 1,62,-1
 224 320 l 1,63,-1
 288 320 l 1,64,-1
 288 373 l 1,65,-1
 224 373 l 1,62,-1
EndSplineSet
EndChar

StartChar: motion-play
Encoding: 988559 988559 14
Width: 512
Flags: W
LayerCount: 2
Fore
SplineSet
469 192 m 256,0,1
 469 250 469 250 440.5 299 c 128,-1,2
 412 348 412 348 363 376.5 c 128,-1,3
 314 405 314 405 256 405 c 0,4,5
 219 405 219 405 184 393 c 1,6,-1
 199 352 l 1,7,8
 227 363 227 363 256 363 c 0,9,10
 302 363 302 363 341.5 340 c 128,-1,11
 381 317 381 317 404 277.5 c 128,-1,12
 427 238 427 238 427 192 c 128,-1,13
 427 146 427 146 404 106.5 c 128,-1,14
 381 67 381 67 341.5 44 c 128,-1,15
 302 21 302 21 256 21 c 128,-1,16
 210 21 210 21 170.5 44 c 128,-1,17
 131 67 131 67 108 106.5 c 128,-1,18
 85 146 85 146 85 192 c 0,19,20
 85 222 85 222 96 250 c 1,21,-1
 55 264 l 1,22,23
 43 229 43 229 43 192 c 0,24,25
 43 134 43 134 71.5 85 c 128,-1,26
 100 36 100 36 149 7.5 c 128,-1,27
 198 -21 198 -21 256 -21 c 128,-1,28
 314 -21 314 -21 363 7.5 c 128,-1,29
 412 36 412 36 440.5 85 c 128,-1,30
 469 134 469 134 469 192 c 256,0,1
117 363 m 256,31,32
 130 363 130 363 139.5 353.5 c 128,-1,33
 149 344 149 344 149 331 c 128,-1,34
 149 318 149 318 139.5 308.5 c 128,-1,35
 130 299 130 299 117 299 c 128,-1,36
 104 299 104 299 94.5 308.5 c 128,-1,37
 85 318 85 318 85 331 c 128,-1,38
 85 344 85 344 94.5 353.5 c 128,-1,39
 104 363 104 363 117 363 c 256,31,32
384 192 m 256,40,41
 384 227 384 227 367 256.5 c 128,-1,42
 350 286 350 286 320.5 303 c 128,-1,43
 291 320 291 320 256 320 c 128,-1,44
 221 320 221 320 191.5 303 c 128,-1,45
 162 286 162 286 145 256.5 c 128,-1,46
 128 227 128 227 128 192 c 128,-1,47
 128 157 128 157 145 127.5 c 128,-1,48
 162 98 162 98 191.5 81 c 128,-1,49
 221 64 221 64 256 64 c 128,-1,50
 291 64 291 64 320.5 81 c 128,-1,51
 350 98 350 98 367 127.5 c 128,-1,52
 384 157 384 157 384 192 c 256,40,41
320 192 m 1,53,-1
 213 128 l 1,54,-1
 213 256 l 1,55,-1
 320 192 l 1,53,-1
EndSplineSet
EndChar

StartChar: motion-pause
Encoding: 988560 988560 15
Width: 512
Flags: W
LayerCount: 2
Fore
SplineSet
469 192 m 256,0,1
 469 250 469 250 440.5 299 c 128,-1,2
 412 348 412 348 363 376.5 c 128,-1,3
 314 405 314 405 256 405 c 0,4,5
 219 405 219 405 184 393 c 1,6,-1
 199 352 l 1,7,8
 227 363 227 363 256 363 c 0,9,10
 302 363 302 363 341.5 340 c 128,-1,11
 381 317 381 317 404 277.5 c 128,-1,12
 427 238 427 238 427 192 c 128,-1,13
 427 146 427 146 404 106.5 c 128,-1,14
 381 67 381 67 341.5 44 c 128,-1,15
 302 21 302 21 256 21 c 128,-1,16
 210 21 210 21 170.5 44 c 128,-1,17
 131 67 131 67 108 106.5 c 128,-1,18
 85 146 85 146 85 192 c 0,19,20
 85 222 85 222 96 250 c 1,21,-1
 55 264 l 1,22,23
 43 229 43 229 43 192 c 0,24,25
 43 134 43 134 71.5 85 c 128,-1,26
 100 36 100 36 149 7.5 c 128,-1,27
 198 -21 198 -21 256 -21 c 128,-1,28
 314 -21 314 -21 363 7.5 c 128,-1,29
 412 36 412 36 440.5 85 c 128,-1,30
 469 134 469 134 469 192 c 256,0,1
117 363 m 256,31,32
 130 363 130 363 139.5 353.5 c 128,-1,33
 149 344 149 344 149 331 c 128,-1,34
 149 318 149 318 139.5 308.5 c 128,-1,35
 130 299 130 299 117 299 c 128,-1,36
 104 299 104 299 94.5 308.5 c 128,-1,37
 85 318 85 318 85 331 c 128,-1,38
 85 344 85 344 94.5 353.5 c 128,-1,39
 104 363 104 363 117 363 c 256,31,32
384 192 m 256,40,41
 384 227 384 227 367 256.5 c 128,-1,42
 350 286 350 286 320.5 303 c 128,-1,43
 291 320 291 320 256 320 c 128,-1,44
 221 320 221 320 191.5 303 c 128,-1,45
 162 286 162 286 145 256.5 c 128,-1,46
 128 227 128 227 128 192 c 128,-1,47
 128 157 128 157 145 127.5 c 128,-1,48
 162 98 162 98 191.5 81 c 128,-1,49
 221 64 221 64 256 64 c 128,-1,50
 291 64 291 64 320.5 81 c 128,-1,51
 350 98 350 98 367 127.5 c 128,-1,52
 384 157 384 157 384 192 c 256,40,41
235 256 m 1,53,-1
 235 128 l 1,54,-1
 192 128 l 1,55,-1
 192 256 l 1,56,-1
 235 256 l 1,53,-1
320 256 m 1,57,-1
 320 128 l 1,58,-1
 277 128 l 1,59,-1
 277 256 l 1,60,-1
 320 256 l 1,57,-1
EndSplineSet
EndChar

StartChar: motion-play-outline
Encoding: 988561 988561 16
Width: 512
Flags: W
LayerCount: 2
Fore
SplineSet
213 96 m 1,0,-1
 341 192 l 1,1,-1
 213 288 l 1,2,-1
 213 96 l 1,0,-1
469 192 m 256,3,4
 469 250 469 250 440.5 299 c 128,-1,5
 412 348 412 348 363 376.5 c 128,-1,6
 314 405 314 405 256 405 c 0,7,8
 219 405 219 405 184 393 c 1,9,-1
 199 352 l 1,10,11
 227 363 227 363 256 363 c 0,12,13
 302 363 302 363 341.5 340 c 128,-1,14
 381 317 381 317 404 277.5 c 128,-1,15
 427 238 427 238 427 192 c 128,-1,16
 427 146 427 146 404 106.5 c 128,-1,17
 381 67 381 67 341.5 44 c 128,-1,18
 302 21 302 21 256 21 c 128,-1,19
 210 21 210 21 170.5 44 c 128,-1,20
 131 67 131 67 108 106.5 c 128,-1,21
 85 146 85 146 85 192 c 0,22,23
 85 222 85 222 96 250 c 1,24,-1
 55 264 l 1,25,26
 43 229 43 229 43 192 c 0,27,28
 43 134 43 134 71.5 85 c 128,-1,29
 100 36 100 36 149 7.5 c 128,-1,30
 198 -21 198 -21 256 -21 c 128,-1,31
 314 -21 314 -21 363 7.5 c 128,-1,32
 412 36 412 36 440.5 85 c 128,-1,33
 469 134 469 134 469 192 c 256,3,4
117 363 m 256,34,35
 130 363 130 363 139.5 353.5 c 128,-1,36
 149 344 149 344 149 331 c 128,-1,37
 149 318 149 318 139.5 308.5 c 128,-1,38
 130 299 130 299 117 299 c 128,-1,39
 104 299 104 299 94.5 308.5 c 128,-1,40
 85 318 85 318 85 331 c 128,-1,41
 85 344 85 344 94.5 353.5 c 128,-1,42
 104 363 104 363 117 363 c 256,34,35
EndSplineSet
EndChar

StartChar: motion-pause-outline
Encoding: 988562 988562 17
Width: 512
Flags: W
LayerCount: 2
Fore
SplineSet
469 192 m 256,0,1
 469 250 469 250 440.5 299 c 128,-1,2
 412 348 412 348 363 376.5 c 128,-1,3
 314 405 314 405 256 405 c 0,4,5
 219 405 219 405 184 393 c 1,6,-1
 199 352 l 1,7,8
 227 363 227 363 256 363 c 0,9,10
 302 363 302 363 341.5 340 c 128,-1,11
 381 317 381 317 404 277.5 c 128,-1,12
 427 238 427 238 427 192 c 128,-1,13
 427 146 427 146 404 106.5 c 128,-1,14
 381 67 381 67 341.5 44 c 128,-1,15
 302 21 302 21 256 21 c 128,-1,16
 210 21 210 21 170.5 44 c 128,-1,17
 131 67 131 67 108 106.5 c 128,-1,18
 85 146 85 146 85 192 c 0,19,20
 85 222 85 222 96 250 c 1,21,-1
 55 264 l 1,22,23
 43 229 43 229 43 192 c 0,24,25
 43 134 43 134 71.5 85 c 128,-1,26
 100 36 100 36 149 7.5 c 128,-1,27
 198 -21 198 -21 256 -21 c 128,-1,28
 314 -21 314 -21 363 7.5 c 128,-1,29
 412 36 412 36 440.5 85 c 128,-1,30
 469 134 469 134 469 192 c 256,0,1
117 299 m 256,31,32
 104 299 104 299 94.5 308.5 c 128,-1,33
 85 318 85 318 85 331 c 128,-1,34
 85 344 85 344 94.5 353.5 c 128,-1,35
 104 363 104 363 117 363 c 128,-1,36
 130 363 130 363 139.5 353.5 c 128,-1,37
 149 344 149 344 149 331 c 128,-1,38
 149 318 149 318 139.5 308.5 c 128,-1,39
 130 299 130 299 117 299 c 256,31,32
192 256 m 1,40,-1
 235 256 l 1,41,-1
 235 128 l 1,42,-1
 192 128 l 1,43,-1
 192 256 l 1,40,-1
277 256 m 1,44,-1
 320 256 l 1,45,-1
 320 128 l 1,46,-1
 277 128 l 1,47,-1
 277 256 l 1,44,-1
EndSplineSet
EndChar

StartChar: arrow-top-left-thin-circle-outline
Encoding: 988563 988563 18
Width: 512
Flags: W
LayerCount: 2
Fore
SplineSet
256 363 m 256,0,1
 302 363 302 363 341.5 340 c 128,-1,2
 381 317 381 317 404 277.5 c 128,-1,3
 427 238 427 238 427 192 c 128,-1,4
 427 146 427 146 404 106.5 c 128,-1,5
 381 67 381 67 341.5 44 c 128,-1,6
 302 21 302 21 256 21 c 128,-1,7
 210 21 210 21 170.5 44 c 128,-1,8
 131 67 131 67 108 106.5 c 128,-1,9
 85 146 85 146 85 192 c 128,-1,10
 85 238 85 238 108 277.5 c 128,-1,11
 131 317 131 317 170.5 340 c 128,-1,12
 210 363 210 363 256 363 c 256,0,1
256 405 m 256,13,14
 198 405 198 405 149 376.5 c 128,-1,15
 100 348 100 348 71.5 299 c 128,-1,16
 43 250 43 250 43 192 c 128,-1,17
 43 134 43 134 71.5 85 c 128,-1,18
 100 36 100 36 149 7.5 c 128,-1,19
 198 -21 198 -21 256 -21 c 128,-1,20
 314 -21 314 -21 363 7.5 c 128,-1,21
 412 36 412 36 440.5 85 c 128,-1,22
 469 134 469 134 469 192 c 128,-1,23
 469 250 469 250 440.5 299 c 128,-1,24
 412 348 412 348 363 376.5 c 128,-1,25
 314 405 314 405 256 405 c 256,13,14
216 202 m 1,26,-1
 171 157 l 1,27,-1
 171 277 l 1,28,-1
 291 277 l 1,29,-1
 246 232 l 1,30,-1
 352 126 l 1,31,-1
 322 96 l 1,32,-1
 216 202 l 1,26,-1
EndSplineSet
EndChar

StartChar: arrow-top-right-thin-circle-outline
Encoding: 988564 988564 19
Width: 512
Flags: W
LayerCount: 2
Fore
SplineSet
256 363 m 256,0,1
 210 363 210 363 170.5 340 c 128,-1,2
 131 317 131 317 108 277.5 c 128,-1,3
 85 238 85 238 85 192 c 128,-1,4
 85 146 85 146 108 106.5 c 128,-1,5
 131 67 131 67 170.5 44 c 128,-1,6
 210 21 210 21 256 21 c 128,-1,7
 302 21 302 21 341.5 44 c 128,-1,8
 381 67 381 67 404 106.5 c 128,-1,9
 427 146 427 146 427 192 c 128,-1,10
 427 238 427 238 404 277.5 c 128,-1,11
 381 317 381 317 341.5 340 c 128,-1,12
 302 363 302 363 256 363 c 256,0,1
256 405 m 256,13,14
 314 405 314 405 363 376.5 c 128,-1,15
 412 348 412 348 440.5 299 c 128,-1,16
 469 250 469 250 469 192 c 128,-1,17
 469 134 469 134 440.5 85 c 128,-1,18
 412 36 412 36 363 7.5 c 128,-1,19
 314 -21 314 -21 256 -21 c 128,-1,20
 198 -21 198 -21 149 7.5 c 128,-1,21
 100 36 100 36 71.5 85 c 128,-1,22
 43 134 43 134 43 192 c 128,-1,23
 43 250 43 250 71.5 299 c 128,-1,24
 100 348 100 348 149 376.5 c 128,-1,25
 198 405 198 405 256 405 c 256,13,14
296 202 m 1,26,-1
 341 157 l 1,27,-1
 341 277 l 1,28,-1
 221 277 l 1,29,-1
 266 232 l 1,30,-1
 160 126 l 1,31,-1
 190 96 l 1,32,-1
 296 202 l 1,26,-1
EndSplineSet
EndChar

StartChar: arrow-bottom-right-thin-circle-outline
Encoding: 988565 988565 20
Width: 512
Flags: W
LayerCount: 2
Fore
SplineSet
256 21 m 256,0,1
 210 21 210 21 170.5 44 c 128,-1,2
 131 67 131 67 108 106.5 c 128,-1,3
 85 146 85 146 85 192 c 128,-1,4
 85 238 85 238 108 277.5 c 128,-1,5
 131 317 131 317 170.5 340 c 128,-1,6
 210 363 210 363 256 363 c 128,-1,7
 302 363 302 363 341.5 340 c 128,-1,8
 381 317 381 317 404 277.5 c 128,-1,9
 427 238 427 238 427 192 c 128,-1,10
 427 146 427 146 404 106.5 c 128,-1,11
 381 67 381 67 341.5 44 c 128,-1,12
 302 21 302 21 256 21 c 256,0,1
256 -21 m 256,13,14
 314 -21 314 -21 363 7.5 c 128,-1,15
 412 36 412 36 440.5 85 c 128,-1,16
 469 134 469 134 469 192 c 128,-1,17
 469 250 469 250 440.5 299 c 128,-1,18
 412 348 412 348 363 376.5 c 128,-1,19
 314 405 314 405 256 405 c 128,-1,20
 198 405 198 405 149 376.5 c 128,-1,21
 100 348 100 348 71.5 299 c 128,-1,22
 43 250 43 250 43 192 c 128,-1,23
 43 134 43 134 71.5 85 c 128,-1,24
 100 36 100 36 149 7.5 c 128,-1,25
 198 -21 198 -21 256 -21 c 256,13,14
296 182 m 1,26,-1
 341 227 l 1,27,-1
 341 107 l 1,28,-1
 221 107 l 1,29,-1
 266 152 l 1,30,-1
 160 258 l 1,31,-1
 190 288 l 1,32,-1
 296 182 l 1,26,-1
EndSplineSet
EndChar

StartChar: arrow-bottom-left-thin-circle-outline
Encoding: 988566 988566 21
Width: 512
Flags: W
LayerCount: 2
Fore
SplineSet
256 21 m 256,0,1
 302 21 302 21 341.5 44 c 128,-1,2
 381 67 381 67 404 106.5 c 128,-1,3
 427 146 427 146 427 192 c 128,-1,4
 427 238 427 238 404 277.5 c 128,-1,5
 381 317 381 317 341.5 340 c 128,-1,6
 302 363 302 363 256 363 c 128,-1,7
 210 363 210 363 170.5 340 c 128,-1,8
 131 317 131 317 108 277.5 c 128,-1,9
 85 238 85 238 85 192 c 128,-1,10
 85 146 85 146 108 106.5 c 128,-1,11
 131 67 131 67 170.5 44 c 128,-1,12
 210 21 210 21 256 21 c 256,0,1
256 -21 m 256,13,14
 198 -21 198 -21 149 7.5 c 128,-1,15
 100 36 100 36 71.5 85 c 128,-1,16
 43 134 43 134 43 192 c 128,-1,17
 43 250 43 250 71.5 299 c 128,-1,18
 100 348 100 348 149 376.5 c 128,-1,19
 198 405 198 405 256 405 c 128,-1,20
 314 405 314 405 363 376.5 c 128,-1,21
 412 348 412 348 440.5 299 c 128,-1,22
 469 250 469 250 469 192 c 128,-1,23
 469 134 469 134 440.5 85 c 128,-1,24
 412 36 412 36 363 7.5 c 128,-1,25
 314 -21 314 -21 256 -21 c 256,13,14
216 182 m 1,26,-1
 171 227 l 1,27,-1
 171 107 l 1,28,-1
 291 107 l 1,29,-1
 246 152 l 1,30,-1
 352 258 l 1,31,-1
 322 288 l 1,32,-1
 216 182 l 1,26,-1
EndSplineSet
EndChar

StartChar: arrow-up-thin-circle-outline
Encoding: 988567 988567 22
Width: 512
Flags: W
LayerCount: 2
Fore
SplineSet
256 363 m 256,0,1
 210 363 210 363 170.5 340 c 128,-1,2
 131 317 131 317 108 277.5 c 128,-1,3
 85 238 85 238 85 192 c 128,-1,4
 85 146 85 146 108 106.5 c 128,-1,5
 131 67 131 67 170.5 44 c 128,-1,6
 210 21 210 21 256 21 c 128,-1,7
 302 21 302 21 341.5 44 c 128,-1,8
 381 67 381 67 404 106.5 c 128,-1,9
 427 146 427 146 427 192 c 128,-1,10
 427 238 427 238 404 277.5 c 128,-1,11
 381 317 381 317 341.5 340 c 128,-1,12
 302 363 302 363 256 363 c 256,0,1
256 405 m 256,13,14
 314 405 314 405 363 376.5 c 128,-1,15
 412 348 412 348 440.5 299 c 128,-1,16
 469 250 469 250 469 192 c 128,-1,17
 469 134 469 134 440.5 85 c 128,-1,18
 412 36 412 36 363 7.5 c 128,-1,19
 314 -21 314 -21 256 -21 c 128,-1,20
 198 -21 198 -21 149 7.5 c 128,-1,21
 100 36 100 36 71.5 85 c 128,-1,22
 43 134 43 134 43 192 c 128,-1,23
 43 250 43 250 71.5 299 c 128,-1,24
 100 348 100 348 149 376.5 c 128,-1,25
 198 405 198 405 256 405 c 256,13,14
277 225 m 1,26,-1
 341 225 l 1,27,-1
 256 309 l 1,28,-1
 171 225 l 1,29,-1
 235 225 l 1,30,-1
 235 75 l 1,31,-1
 277 75 l 1,32,-1
 277 225 l 1,26,-1
EndSplineSet
EndChar

StartChar: arrow-right-thin-circle-outline
Encoding: 988568 988568 23
Width: 512
Flags: W
LayerCount: 2
Fore
SplineSet
427 192 m 256,0,1
 427 238 427 238 404 277.5 c 128,-1,2
 381 317 381 317 341.5 340 c 128,-1,3
 302 363 302 363 256 363 c 128,-1,4
 210 363 210 363 170.5 340 c 128,-1,5
 131 317 131 317 108 277.5 c 128,-1,6
 85 238 85 238 85 192 c 128,-1,7
 85 146 85 146 108 106.5 c 128,-1,8
 131 67 131 67 170.5 44 c 128,-1,9
 210 21 210 21 256 21 c 128,-1,10
 302 21 302 21 341.5 44 c 128,-1,11
 381 67 381 67 404 106.5 c 128,-1,12
 427 146 427 146 427 192 c 256,0,1
469 192 m 256,13,14
 469 134 469 134 440.5 85 c 128,-1,15
 412 36 412 36 363 7.5 c 128,-1,16
 314 -21 314 -21 256 -21 c 128,-1,17
 198 -21 198 -21 149 7.5 c 128,-1,18
 100 36 100 36 71.5 85 c 128,-1,19
 43 134 43 134 43 192 c 128,-1,20
 43 250 43 250 71.5 299 c 128,-1,21
 100 348 100 348 149 376.5 c 128,-1,22
 198 405 198 405 256 405 c 128,-1,23
 314 405 314 405 363 376.5 c 128,-1,24
 412 348 412 348 440.5 299 c 128,-1,25
 469 250 469 250 469 192 c 256,13,14
289 171 m 1,26,-1
 289 107 l 1,27,-1
 373 192 l 1,28,-1
 289 277 l 1,29,-1
 289 213 l 1,30,-1
 139 213 l 1,31,-1
 139 171 l 1,32,-1
 289 171 l 1,26,-1
EndSplineSet
EndChar

StartChar: arrow-down-thin-circle-outline
Encoding: 988569 988569 24
Width: 512
Flags: W
LayerCount: 2
Fore
SplineSet
256 21 m 256,0,1
 302 21 302 21 341.5 44 c 128,-1,2
 381 67 381 67 404 106.5 c 128,-1,3
 427 146 427 146 427 192 c 128,-1,4
 427 238 427 238 404 277.5 c 128,-1,5
 381 317 381 317 341.5 340 c 128,-1,6
 302 363 302 363 256 363 c 128,-1,7
 210 363 210 363 170.5 340 c 128,-1,8
 131 317 131 317 108 277.5 c 128,-1,9
 85 238 85 238 85 192 c 128,-1,10
 85 146 85 146 108 106.5 c 128,-1,11
 131 67 131 67 170.5 44 c 128,-1,12
 210 21 210 21 256 21 c 256,0,1
256 -21 m 256,13,14
 198 -21 198 -21 149 7.5 c 128,-1,15
 100 36 100 36 71.5 85 c 128,-1,16
 43 134 43 134 43 192 c 128,-1,17
 43 250 43 250 71.5 299 c 128,-1,18
 100 348 100 348 149 376.5 c 128,-1,19
 198 405 198 405 256 405 c 128,-1,20
 314 405 314 405 363 376.5 c 128,-1,21
 412 348 412 348 440.5 299 c 128,-1,22
 469 250 469 250 469 192 c 128,-1,23
 469 134 469 134 440.5 85 c 128,-1,24
 412 36 412 36 363 7.5 c 128,-1,25
 314 -21 314 -21 256 -21 c 256,13,14
235 159 m 1,26,-1
 171 159 l 1,27,-1
 256 75 l 1,28,-1
 341 159 l 1,29,-1
 277 159 l 1,30,-1
 277 309 l 1,31,-1
 235 309 l 1,32,-1
 235 159 l 1,26,-1
EndSplineSet
EndChar

StartChar: arrow-left-thin-circle-outline
Encoding: 988570 988570 25
Width: 512
Flags: W
LayerCount: 2
Fore
SplineSet
85 192 m 256,0,1
 85 146 85 146 108 106.5 c 128,-1,2
 131 67 131 67 170.5 44 c 128,-1,3
 210 21 210 21 256 21 c 128,-1,4
 302 21 302 21 341.5 44 c 128,-1,5
 381 67 381 67 404 106.5 c 128,-1,6
 427 146 427 146 427 192 c 128,-1,7
 427 238 427 238 404 277.5 c 128,-1,8
 381 317 381 317 341.5 340 c 128,-1,9
 302 363 302 363 256 363 c 128,-1,10
 210 363 210 363 170.5 340 c 128,-1,11
 131 317 131 317 108 277.5 c 128,-1,12
 85 238 85 238 85 192 c 256,0,1
43 192 m 256,13,14
 43 250 43 250 71.5 299 c 128,-1,15
 100 348 100 348 149 376.5 c 128,-1,16
 198 405 198 405 256 405 c 128,-1,17
 314 405 314 405 363 376.5 c 128,-1,18
 412 348 412 348 440.5 299 c 128,-1,19
 469 250 469 250 469 192 c 128,-1,20
 469 134 469 134 440.5 85 c 128,-1,21
 412 36 412 36 363 7.5 c 128,-1,22
 314 -21 314 -21 256 -21 c 128,-1,23
 198 -21 198 -21 149 7.5 c 128,-1,24
 100 36 100 36 71.5 85 c 128,-1,25
 43 134 43 134 43 192 c 256,13,14
223 213 m 1,26,-1
 223 277 l 1,27,-1
 139 192 l 1,28,-1
 223 107 l 1,29,-1
 223 171 l 1,30,-1
 373 171 l 1,31,-1
 373 213 l 1,32,-1
 223 213 l 1,26,-1
EndSplineSet
EndChar

StartChar: human-capacity-decrease
Encoding: 988571 988571 26
Width: 512
Flags: W
LayerCount: 2
Fore
SplineSet
341 363 m 0,0,1
 341 380 341 380 353.5 392.5 c 128,-1,2
 366 405 366 405 384 405 c 128,-1,3
 402 405 402 405 414.5 392.5 c 128,-1,4
 427 380 427 380 427 362.5 c 128,-1,5
 427 345 427 345 414.5 332.5 c 128,-1,6
 402 320 402 320 384 320 c 128,-1,7
 366 320 366 320 353.5 332.5 c 128,-1,8
 341 345 341 345 341 363 c 0,0,1
443 286 m 0,9,10
 415 299 415 299 384 299 c 0,11,12
 363 299 363 299 343 293 c 1,13,14
 363 274 363 274 363 247 c 2,15,-1
 363 235 l 1,16,-1
 469 235 l 1,17,-1
 469 247 l 2,18,19
 469 260 469 260 462 270.5 c 128,-1,20
 455 281 455 281 443 286 c 0,9,10
128 320 m 256,21,22
 146 320 146 320 158.5 332.5 c 128,-1,23
 171 345 171 345 171 362.5 c 128,-1,24
 171 380 171 380 158.5 392.5 c 128,-1,25
 146 405 146 405 128 405 c 128,-1,26
 110 405 110 405 97.5 392.5 c 128,-1,27
 85 380 85 380 85 362.5 c 128,-1,28
 85 345 85 345 97.5 332.5 c 128,-1,29
 110 320 110 320 128 320 c 256,21,22
169 293 m 1,30,31
 149 299 149 299 128 299 c 0,32,33
 97 299 97 299 69 286 c 0,34,35
 57 281 57 281 50 270.5 c 128,-1,36
 43 260 43 260 43 247 c 2,37,-1
 43 235 l 1,38,-1
 149 235 l 1,39,-1
 149 247 l 2,40,41
 149 274 149 274 169 293 c 1,30,31
213 363 m 0,42,43
 213 380 213 380 225.5 392.5 c 128,-1,44
 238 405 238 405 256 405 c 128,-1,45
 274 405 274 405 286.5 392.5 c 128,-1,46
 299 380 299 380 299 362.5 c 128,-1,47
 299 345 299 345 286.5 332.5 c 128,-1,48
 274 320 274 320 256 320 c 128,-1,49
 238 320 238 320 225.5 332.5 c 128,-1,50
 213 345 213 345 213 363 c 0,42,43
341 235 m 1,51,-1
 171 235 l 1,52,-1
 171 247 l 2,53,54
 171 260 171 260 178 270.5 c 128,-1,55
 185 281 185 281 197 286 c 0,56,57
 225 299 225 299 256 299 c 128,-1,58
 287 299 287 299 315 286 c 0,59,60
 327 281 327 281 334 270.5 c 128,-1,61
 341 260 341 260 341 247 c 2,62,-1
 341 235 l 1,51,-1
320 107 m 0,63,64
 320 124 320 124 332.5 136.5 c 128,-1,65
 345 149 345 149 362.5 149 c 128,-1,66
 380 149 380 149 392.5 136.5 c 128,-1,67
 405 124 405 124 405 106.5 c 128,-1,68
 405 89 405 89 392.5 76.5 c 128,-1,69
 380 64 380 64 362.5 64 c 128,-1,70
 345 64 345 64 332.5 76.5 c 128,-1,71
 320 89 320 89 320 107 c 0,63,64
448 -21 m 1,72,-1
 277 -21 l 1,73,-1
 277 -9 l 2,74,75
 277 4 277 4 284.5 14.5 c 128,-1,76
 292 25 292 25 303 30 c 0,77,78
 332 43 332 43 363 43 c 128,-1,79
 394 43 394 43 422 30 c 0,80,81
 434 25 434 25 441 14.5 c 128,-1,82
 448 4 448 4 448 -9 c 2,83,-1
 448 -21 l 1,72,-1
107 107 m 0,84,85
 107 124 107 124 119.5 136.5 c 128,-1,86
 132 149 132 149 149.5 149 c 128,-1,87
 167 149 167 149 179.5 136.5 c 128,-1,88
 192 124 192 124 192 106.5 c 128,-1,89
 192 89 192 89 179.5 76.5 c 128,-1,90
 167 64 167 64 149.5 64 c 128,-1,91
 132 64 132 64 119.5 76.5 c 128,-1,92
 107 89 107 89 107 107 c 0,84,85
235 -21 m 1,93,-1
 64 -21 l 1,94,-1
 64 -9 l 2,95,96
 64 4 64 4 71 14.5 c 128,-1,97
 78 25 78 25 90 30 c 0,98,99
 118 43 118 43 149 43 c 128,-1,100
 180 43 180 43 209 30 c 0,101,102
 220 25 220 25 227.5 14.5 c 128,-1,103
 235 4 235 4 235 -9 c 2,104,-1
 235 -21 l 1,93,-1
272 171 m 1,105,-1
 272 213 l 1,106,-1
 240 213 l 1,107,-1
 240 171 l 1,108,-1
 192 171 l 1,109,-1
 256 107 l 1,110,-1
 320 171 l 1,111,-1
 272 171 l 1,105,-1
EndSplineSet
EndChar

StartChar: human-capacity-increase
Encoding: 988572 988572 27
Width: 512
Flags: W
LayerCount: 2
Fore
SplineSet
341 363 m 0,0,1
 341 380 341 380 353.5 392.5 c 128,-1,2
 366 405 366 405 384 405 c 128,-1,3
 402 405 402 405 414.5 392.5 c 128,-1,4
 427 380 427 380 427 362.5 c 128,-1,5
 427 345 427 345 414.5 332.5 c 128,-1,6
 402 320 402 320 384 320 c 128,-1,7
 366 320 366 320 353.5 332.5 c 128,-1,8
 341 345 341 345 341 363 c 0,0,1
443 286 m 0,9,10
 415 299 415 299 384 299 c 0,11,12
 363 299 363 299 343 293 c 1,13,14
 363 274 363 274 363 247 c 2,15,-1
 363 235 l 1,16,-1
 469 235 l 1,17,-1
 469 247 l 2,18,19
 469 260 469 260 462 270.5 c 128,-1,20
 455 281 455 281 443 286 c 0,9,10
128 320 m 256,21,22
 146 320 146 320 158.5 332.5 c 128,-1,23
 171 345 171 345 171 362.5 c 128,-1,24
 171 380 171 380 158.5 392.5 c 128,-1,25
 146 405 146 405 128 405 c 128,-1,26
 110 405 110 405 97.5 392.5 c 128,-1,27
 85 380 85 380 85 362.5 c 128,-1,28
 85 345 85 345 97.5 332.5 c 128,-1,29
 110 320 110 320 128 320 c 256,21,22
169 293 m 1,30,31
 149 299 149 299 128 299 c 0,32,33
 97 299 97 299 69 286 c 0,34,35
 57 281 57 281 50 270.5 c 128,-1,36
 43 260 43 260 43 247 c 2,37,-1
 43 235 l 1,38,-1
 149 235 l 1,39,-1
 149 247 l 2,40,41
 149 274 149 274 169 293 c 1,30,31
213 363 m 0,42,43
 213 380 213 380 225.5 392.5 c 128,-1,44
 238 405 238 405 256 405 c 128,-1,45
 274 405 274 405 286.5 392.5 c 128,-1,46
 299 380 299 380 299 362.5 c 128,-1,47
 299 345 299 345 286.5 332.5 c 128,-1,48
 274 320 274 320 256 320 c 128,-1,49
 238 320 238 320 225.5 332.5 c 128,-1,50
 213 345 213 345 213 363 c 0,42,43
341 235 m 1,51,-1
 171 235 l 1,52,-1
 171 247 l 2,53,54
 171 260 171 260 178 270.5 c 128,-1,55
 185 281 185 281 197 286 c 0,56,57
 225 299 225 299 256 299 c 128,-1,58
 287 299 287 299 315 286 c 0,59,60
 327 281 327 281 334 270.5 c 128,-1,61
 341 260 341 260 341 247 c 2,62,-1
 341 235 l 1,51,-1
320 107 m 0,63,64
 320 124 320 124 332.5 136.5 c 128,-1,65
 345 149 345 149 362.5 149 c 128,-1,66
 380 149 380 149 392.5 136.5 c 128,-1,67
 405 124 405 124 405 106.5 c 128,-1,68
 405 89 405 89 392.5 76.5 c 128,-1,69
 380 64 380 64 362.5 64 c 128,-1,70
 345 64 345 64 332.5 76.5 c 128,-1,71
 320 89 320 89 320 107 c 0,63,64
448 -21 m 1,72,-1
 277 -21 l 1,73,-1
 277 -9 l 2,74,75
 277 4 277 4 284.5 14.5 c 128,-1,76
 292 25 292 25 303 30 c 0,77,78
 332 43 332 43 363 43 c 128,-1,79
 394 43 394 43 422 30 c 0,80,81
 434 25 434 25 441 14.5 c 128,-1,82
 448 4 448 4 448 -9 c 2,83,-1
 448 -21 l 1,72,-1
107 107 m 0,84,85
 107 124 107 124 119.5 136.5 c 128,-1,86
 132 149 132 149 149.5 149 c 128,-1,87
 167 149 167 149 179.5 136.5 c 128,-1,88
 192 124 192 124 192 106.5 c 128,-1,89
 192 89 192 89 179.5 76.5 c 128,-1,90
 167 64 167 64 149.5 64 c 128,-1,91
 132 64 132 64 119.5 76.5 c 128,-1,92
 107 89 107 89 107 107 c 0,84,85
235 -21 m 1,93,-1
 64 -21 l 1,94,-1
 64 -9 l 2,95,96
 64 4 64 4 71 14.5 c 128,-1,97
 78 25 78 25 90 30 c 0,98,99
 118 43 118 43 149 43 c 128,-1,100
 180 43 180 43 209 30 c 0,101,102
 220 25 220 25 227.5 14.5 c 128,-1,103
 235 4 235 4 235 -9 c 2,104,-1
 235 -21 l 1,93,-1
272 149 m 1,105,-1
 272 107 l 1,106,-1
 240 107 l 1,107,-1
 240 149 l 1,108,-1
 192 149 l 1,109,-1
 256 213 l 1,110,-1
 320 149 l 1,111,-1
 272 149 l 1,105,-1
EndSplineSet
EndChar

StartChar: human-greeting-proximity
Encoding: 988573 988573 28
Width: 512
Flags: W
LayerCount: 2
Fore
SplineSet
235 149 m 1,0,-1
 192 149 l 1,1,2
 192 201 192 201 218 245.5 c 128,-1,3
 244 290 244 290 288 315.5 c 128,-1,4
 332 341 332 341 384 341 c 1,5,-1
 384 299 l 1,6,7
 343 299 343 299 309 279 c 128,-1,8
 275 259 275 259 255 224.5 c 128,-1,9
 235 190 235 190 235 149 c 1,0,-1
384 213 m 1,10,-1
 384 256 l 1,11,12
 355 256 355 256 330.5 241.5 c 128,-1,13
 306 227 306 227 291.5 202.5 c 128,-1,14
 277 178 277 178 277 149 c 1,15,-1
 320 149 l 1,16,17
 320 176 320 176 338.5 194.5 c 128,-1,18
 357 213 357 213 384 213 c 1,10,-1
149 363 m 0,19,20
 149 380 149 380 136.5 392.5 c 128,-1,21
 124 405 124 405 106.5 405 c 128,-1,22
 89 405 89 405 76.5 392.5 c 128,-1,23
 64 380 64 380 64 362.5 c 128,-1,24
 64 345 64 345 76.5 332.5 c 128,-1,25
 89 320 89 320 106.5 320 c 128,-1,26
 124 320 124 320 136.5 332.5 c 128,-1,27
 149 345 149 345 149 363 c 0,19,20
244 352 m 1,28,-1
 202 352 l 1,29,30
 198 329 198 329 180 314 c 128,-1,31
 162 299 162 299 139 299 c 2,32,-1
 75 299 l 2,33,34
 61 299 61 299 52 289.5 c 128,-1,35
 43 280 43 280 43 267 c 2,36,-1
 43 213 l 1,37,-1
 171 213 l 1,38,-1
 171 262 l 1,39,40
 201 271 201 271 221 295.5 c 128,-1,41
 241 320 241 320 244 352 c 1,28,-1
405 85 m 0,42,43
 423 85 423 85 435.5 97.5 c 128,-1,44
 448 110 448 110 448 128 c 128,-1,45
 448 146 448 146 435.5 158.5 c 128,-1,46
 423 171 423 171 405.5 171 c 128,-1,47
 388 171 388 171 375.5 158.5 c 128,-1,48
 363 146 363 146 363 128 c 128,-1,49
 363 110 363 110 375.5 97.5 c 128,-1,50
 388 85 388 85 405 85 c 0,42,43
437 64 m 2,51,-1
 373 64 l 2,52,53
 350 64 350 64 332 79 c 128,-1,54
 314 94 314 94 310 117 c 1,55,-1
 268 117 l 1,56,57
 271 86 271 86 291 61 c 128,-1,58
 311 36 311 36 341 27 c 1,59,-1
 341 -21 l 1,60,-1
 469 -21 l 1,61,-1
 469 32 l 2,62,63
 469 45 469 45 460 54.5 c 128,-1,64
 451 64 451 64 437 64 c 2,51,-1
EndSplineSet
EndChar

StartChar: hvac-off
Encoding: 988574 988574 29
Width: 512
Flags: W
LayerCount: 2
Fore
SplineSet
472 -10 m 1,0,-1
 51 411 l 1,1,-1
 24 384 l 1,2,-1
 64 344 l 1,3,-1
 64 0 l 1,4,-1
 408 0 l 1,5,-1
 445 -37 l 1,6,-1
 472 -10 l 1,0,-1
256 64 m 0,7,8
 221 64 221 64 191.5 81 c 128,-1,9
 162 98 162 98 145 127.5 c 128,-1,10
 128 157 128 157 128 193 c 128,-1,11
 128 229 128 229 148 260 c 1,12,-1
 180 228 l 1,13,14
 173 215 173 215 172 203 c 1,15,-1
 205 203 l 1,16,-1
 226 181 l 1,17,-1
 172 181 l 1,18,19
 174 165 174 165 183 149 c 1,20,-1
 258 149 l 1,21,-1
 280 128 l 1,22,-1
 200 128 l 1,23,24
 225 107 225 107 256 107 c 0,25,26
 274 107 274 107 292 115 c 1,27,-1
 324 84 l 1,28,29
 293 64 293 64 256 64 c 0,7,8
256 277 m 0,30,31
 287 277 287 277 312 256 c 1,32,-1
 260 256 l 1,33,-1
 240 276 l 1,34,35
 249 277 249 277 256 277 c 0,30,31
206 310 m 1,36,-1
 132 384 l 1,37,-1
 448 384 l 1,38,-1
 448 68 l 1,39,-1
 374 142 l 1,40,41
 384 166 384 166 384 192 c 0,42,43
 384 227 384 227 367 256.5 c 128,-1,44
 350 286 350 286 320.5 303 c 128,-1,45
 291 320 291 320 256 320 c 0,46,47
 230 320 230 320 206 310 c 1,36,-1
340 203 m 1,48,-1
 314 203 l 1,49,-1
 282 235 l 1,50,-1
 329 235 l 1,51,52
 338 219 338 219 340 203 c 1,48,-1
EndSplineSet
EndChar

StartChar: inbox-remove
Encoding: 988575 988575 30
Width: 512
Flags: W
LayerCount: 2
Fore
SplineSet
405 128 m 1,0,-1
 320 128 l 1,1,2
 320 101 320 101 301.5 82.5 c 128,-1,3
 283 64 283 64 256 64 c 128,-1,4
 229 64 229 64 210.5 82.5 c 128,-1,5
 192 101 192 101 192 128 c 1,6,-1
 107 128 l 1,7,-1
 107 341 l 1,8,-1
 405 341 l 1,9,-1
 405 128 l 1,0,-1
405 384 m 2,10,-1
 107 384 l 2,11,12
 89 384 89 384 76.5 371.5 c 128,-1,13
 64 359 64 359 64 341 c 2,14,-1
 64 43 l 2,15,16
 64 25 64 25 76.5 12.5 c 128,-1,17
 89 0 89 0 107 0 c 2,18,-1
 405 0 l 2,19,20
 423 0 423 0 435.5 12.5 c 128,-1,21
 448 25 448 25 448 43 c 2,22,-1
 448 341 l 2,23,24
 448 359 448 359 435.5 371.5 c 128,-1,25
 423 384 423 384 405 384 c 2,10,-1
301 309 m 1,26,-1
 331 279 l 1,27,-1
 286 235 l 1,28,-1
 331 190 l 1,29,-1
 301 160 l 1,30,-1
 256 205 l 1,31,-1
 211 160 l 1,32,-1
 181 190 l 1,33,-1
 226 235 l 1,34,-1
 181 279 l 1,35,-1
 211 309 l 1,36,-1
 256 265 l 1,37,-1
 301 309 l 1,26,-1
EndSplineSet
EndChar

StartChar: inbox-remove-outline
Encoding: 988576 988576 31
Width: 512
Flags: W
LayerCount: 2
Fore
SplineSet
405 384 m 2,0,-1
 107 384 l 2,1,2
 89 384 89 384 76.5 371.5 c 128,-1,3
 64 359 64 359 64 341 c 2,4,-1
 64 43 l 2,5,6
 64 25 64 25 76.5 12.5 c 128,-1,7
 89 0 89 0 107 0 c 2,8,-1
 405 0 l 2,9,10
 423 0 423 0 435.5 12.5 c 128,-1,11
 448 25 448 25 448 43 c 2,12,-1
 448 341 l 2,13,14
 448 359 448 359 435.5 371.5 c 128,-1,15
 423 384 423 384 405 384 c 2,0,-1
107 43 m 1,16,-1
 107 85 l 1,17,-1
 173 85 l 1,18,19
 179 61 179 61 201 43 c 1,20,-1
 107 43 l 1,16,-1
405 43 m 1,21,-1
 311 43 l 1,22,23
 333 61 333 61 339 85 c 1,24,-1
 405 85 l 1,25,-1
 405 43 l 1,21,-1
405 128 m 1,26,-1
 299 128 l 1,27,-1
 299 107 l 2,28,29
 299 89 299 89 286.5 76.5 c 128,-1,30
 274 64 274 64 256 64 c 128,-1,31
 238 64 238 64 225.5 76.5 c 128,-1,32
 213 89 213 89 213 107 c 2,33,-1
 213 128 l 1,34,-1
 107 128 l 1,35,-1
 107 341 l 1,36,-1
 405 341 l 1,37,-1
 405 128 l 1,26,-1
301 309 m 1,38,-1
 331 279 l 1,39,-1
 286 235 l 1,40,-1
 331 190 l 1,41,-1
 301 160 l 1,42,-1
 256 205 l 1,43,-1
 211 160 l 1,44,-1
 181 190 l 1,45,-1
 226 235 l 1,46,-1
 181 279 l 1,47,-1
 211 309 l 1,48,-1
 256 265 l 1,49,-1
 301 309 l 1,38,-1
EndSplineSet
EndChar

StartChar: handshake-outline
Encoding: 988577 988577 32
Width: 512
Flags: W
LayerCount: 2
Fore
SplineSet
463 262 m 2,0,1
 481 280 481 280 479 303 c 0,2,3
 476 321 476 321 463 335 c 2,4,-1
 399 399 l 2,5,6
 381 417 381 417 358 415 c 0,7,8
 340 412 340 412 326 399 c 2,9,-1
 290 363 l 1,10,-1
 235 363 l 2,11,12
 206 363 206 363 186 349 c 0,13,14
 169 337 169 337 159 317 c 1,15,-1
 64 222 l 1,16,-1
 64 137 l 1,17,-1
 49 122 l 2,18,19
 31 104 31 104 33 81 c 0,20,21
 36 63 36 63 49 49 c 2,22,-1
 113 -15 l 2,23,24
 129 -31 129 -31 148 -31 c 0,25,26
 159 -31 159 -31 169 -26.5 c 128,-1,27
 179 -22 179 -22 186 -15 c 2,28,-1
 243 43 l 1,29,-1
 320 43 l 2,30,31
 345 43 345 43 362 57 c 0,32,33
 376 68 376 68 381 87 c 1,34,35
 398 92 398 92 410 104 c 0,36,37
 419 115 419 115 424 130 c 1,38,39
 447 136 447 136 459 156 c 0,40,41
 469 173 469 173 469 192 c 2,42,-1
 469 256 l 1,43,-1
 457 256 l 1,44,-1
 463 262 l 2,0,1
427 192 m 2,45,46
 427 171 427 171 405 171 c 2,47,-1
 384 171 l 1,48,-1
 384 149 l 2,49,50
 384 128 384 128 363 128 c 2,51,-1
 341 128 l 1,52,-1
 341 107 l 2,53,54
 341 85 341 85 320 85 c 2,55,-1
 226 85 l 1,56,-1
 156 15 l 2,57,58
 149 9 149 9 143 15 c 2,59,-1
 79 79 l 2,60,61
 73 85 73 85 79 92 c 2,62,-1
 107 119 l 1,63,-1
 107 205 l 1,64,-1
 149 247 l 1,65,-1
 149 213 l 2,66,67
 149 190 149 190 164 172 c 0,68,69
 181 149 181 149 213 149 c 128,-1,70
 245 149 245 149 263 172 c 0,71,72
 277 190 277 190 277 213 c 1,73,-1
 427 213 l 1,74,-1
 427 192 l 2,45,46
433 292 m 2,75,-1
 397 256 l 1,76,-1
 235 256 l 1,77,-1
 235 213 l 2,78,79
 235 192 235 192 213.5 192 c 128,-1,80
 192 192 192 192 192 213 c 2,81,-1
 192 277 l 2,82,83
 192 291 192 291 199 302 c 0,84,85
 210 320 210 320 235 320 c 2,86,-1
 307 320 l 1,87,-1
 356 369 l 2,88,89
 363 375 363 375 369 369 c 2,90,-1
 433 305 l 2,91,92
 439 299 439 299 433 292 c 2,75,-1
EndSplineSet
EndChar

StartChar: ladder
Encoding: 988578 988578 33
Width: 512
Flags: W
LayerCount: 2
Fore
SplineSet
299 427 m 1,0,-1
 299 384 l 1,1,-1
 213 384 l 1,2,-1
 213 427 l 1,3,-1
 171 427 l 1,4,-1
 171 -21 l 1,5,-1
 213 -21 l 1,6,-1
 213 21 l 1,7,-1
 299 21 l 1,8,-1
 299 -21 l 1,9,-1
 341 -21 l 1,10,-1
 341 427 l 1,11,-1
 299 427 l 1,0,-1
299 341 m 1,12,-1
 299 277 l 1,13,-1
 213 277 l 1,14,-1
 213 341 l 1,15,-1
 299 341 l 1,12,-1
299 235 m 1,16,-1
 299 171 l 1,17,-1
 213 171 l 1,18,-1
 213 235 l 1,19,-1
 299 235 l 1,16,-1
213 64 m 1,20,-1
 213 128 l 1,21,-1
 299 128 l 1,22,-1
 299 64 l 1,23,-1
 213 64 l 1,20,-1
EndSplineSet
EndChar

StartChar: router-wireless-off
Encoding: 988579 988579 34
Width: 512
Flags: W
LayerCount: 2
Fore
SplineSet
252 322 m 1,0,-1
 235 339 l 1,1,2
 257 361 257 361 284.5 372.5 c 128,-1,3
 312 384 312 384 341.5 384 c 128,-1,4
 371 384 371 384 398.5 372.5 c 128,-1,5
 426 361 426 361 448 339 c 1,6,-1
 431 322 l 1,7,8
 412 340 412 340 388.5 349 c 128,-1,9
 365 358 365 358 341 358 c 128,-1,10
 317 358 317 358 294 349 c 128,-1,11
 271 340 271 340 252 322 c 1,0,-1
448 128 m 2,12,13
 448 146 448 146 435.5 158.5 c 128,-1,14
 423 171 423 171 405 171 c 2,15,-1
 363 171 l 1,16,-1
 363 256 l 1,17,-1
 320 256 l 1,18,-1
 320 196 l 1,19,-1
 448 68 l 1,20,-1
 448 128 l 2,12,13
395 288 m 1,21,-1
 412 305 l 1,22,23
 397 319 397 319 379 327 c 128,-1,24
 361 335 361 335 341.5 335 c 128,-1,25
 322 335 322 335 303.5 327 c 128,-1,26
 285 319 285 319 271 305 c 1,27,-1
 288 288 l 1,28,29
 309 309 309 309 341 309 c 128,-1,30
 373 309 373 309 395 288 c 1,21,-1
471 -11 m 1,31,-1
 444 -38 l 1,32,-1
 407 0 l 1,33,-1
 107 0 l 2,34,35
 89 0 89 0 76.5 12.5 c 128,-1,36
 64 25 64 25 64 43 c 2,37,-1
 64 128 l 2,38,39
 64 146 64 146 76.5 158.5 c 128,-1,40
 89 171 89 171 107 171 c 2,41,-1
 237 171 l 1,42,-1
 23 384 l 1,43,-1
 51 412 l 1,44,-1
 471 -11 l 1,31,-1
171 107 m 1,45,-1
 128 107 l 1,46,-1
 128 64 l 1,47,-1
 171 64 l 1,48,-1
 171 107 l 1,45,-1
245 107 m 1,49,-1
 203 107 l 1,50,-1
 203 64 l 1,51,-1
 245 64 l 1,52,-1
 245 107 l 1,49,-1
320 87 m 1,53,-1
 301 107 l 1,54,-1
 277 107 l 1,55,-1
 277 64 l 1,56,-1
 320 64 l 1,57,-1
 320 87 l 1,53,-1
EndSplineSet
EndChar

StartChar: seesaw
Encoding: 988580 988580 35
Width: 512
Flags: W
LayerCount: 2
Fore
SplineSet
463 165 m 1,0,-1
 470 123 l 1,1,-1
 50 48 l 1,2,-1
 43 90 l 1,3,-1
 106 101 l 1,4,-1
 98 143 l 2,5,6
 97 152 97 152 102 159 c 128,-1,7
 107 166 107 166 115.5 167.5 c 128,-1,8
 124 169 124 169 131.5 164 c 128,-1,9
 139 159 139 159 140 150 c 2,10,-1
 148 109 l 1,11,-1
 358 146 l 1,12,-1
 350 188 l 2,13,14
 348 197 348 197 353.5 204.5 c 128,-1,15
 359 212 359 212 367.5 213.5 c 128,-1,16
 376 215 376 215 383.5 209.5 c 128,-1,17
 391 204 391 204 392 196 c 2,18,-1
 400 154 l 1,19,-1
 463 165 l 1,0,-1
215 55 m 1,20,-1
 171 -21 l 1,21,-1
 341 -21 l 1,22,-1
 290 69 l 1,23,-1
 215 55 l 1,20,-1
EndSplineSet
EndChar

StartChar: slide
Encoding: 988581 988581 36
Width: 512
Flags: W
LayerCount: 2
Fore
SplineSet
316 118 m 0,0,1
 309 129 309 129 298 149 c 2,2,-1
 297 151 l 2,3,4
 275 189 275 189 257 204 c 0,5,6
 233 226 233 226 192 232 c 1,7,-1
 192 331 l 2,8,9
 192 362 192 362 170 383.5 c 128,-1,10
 148 405 148 405 117 405 c 128,-1,11
 86 405 86 405 64.5 383.5 c 128,-1,12
 43 362 43 362 43 331 c 2,13,-1
 43 -21 l 1,14,-1
 85 -21 l 1,15,-1
 85 21 l 1,16,-1
 149 21 l 1,17,-1
 149 -21 l 1,18,-1
 192 -21 l 1,19,-1
 192 189 l 1,20,21
 218 184 218 184 233 169 c 0,22,23
 243 159 243 159 260 130 c 0,24,25
 271 110 271 110 281 95 c 0,26,27
 320 36 320 36 358 10 c 0,28,29
 404 -21 404 -21 469 -21 c 1,30,-1
 469 21 l 1,31,32
 417 21 417 21 381 46 c 0,33,34
 351 67 351 67 316 118 c 0,0,1
117 363 m 0,35,36
 131 363 131 363 140 353.5 c 128,-1,37
 149 344 149 344 149 331 c 2,38,-1
 149 235 l 1,39,-1
 85 235 l 1,40,-1
 85 331 l 2,41,42
 85 344 85 344 94.5 353.5 c 128,-1,43
 104 363 104 363 117 363 c 0,35,36
85 64 m 1,44,-1
 85 107 l 1,45,-1
 149 107 l 1,46,-1
 149 64 l 1,47,-1
 85 64 l 1,44,-1
149 149 m 1,48,-1
 85 149 l 1,49,-1
 85 192 l 1,50,-1
 149 192 l 1,51,-1
 149 149 l 1,48,-1
EndSplineSet
EndChar

StartChar: calculator-variant-outline
Encoding: 988582 988582 37
Width: 512
Flags: W
LayerCount: 2
Fore
SplineSet
405 384 m 2,0,-1
 107 384 l 2,1,2
 89 384 89 384 76.5 371.5 c 128,-1,3
 64 359 64 359 64 341 c 2,4,-1
 64 43 l 2,5,6
 64 25 64 25 76.5 12.5 c 128,-1,7
 89 0 89 0 107 0 c 2,8,-1
 405 0 l 2,9,10
 423 0 423 0 435.5 12.5 c 128,-1,11
 448 25 448 25 448 43 c 2,12,-1
 448 341 l 2,13,14
 448 359 448 359 435.5 371.5 c 128,-1,15
 423 384 423 384 405 384 c 2,0,-1
405 43 m 1,16,-1
 107 43 l 1,17,-1
 107 341 l 1,18,-1
 405 341 l 1,19,-1
 405 43 l 1,16,-1
132 284 m 1,20,-1
 239 284 l 1,21,-1
 239 252 l 1,22,-1
 132 252 l 1,23,-1
 132 284 l 1,20,-1
277 111 m 1,24,-1
 384 111 l 1,25,-1
 384 79 l 1,26,-1
 277 79 l 1,27,-1
 277 111 l 1,24,-1
277 166 m 1,28,-1
 384 166 l 1,29,-1
 384 134 l 1,30,-1
 277 134 l 1,31,-1
 277 166 l 1,28,-1
171 64 m 1,32,-1
 203 64 l 1,33,-1
 203 107 l 1,34,-1
 245 107 l 1,35,-1
 245 139 l 1,36,-1
 203 139 l 1,37,-1
 203 181 l 1,38,-1
 171 181 l 1,39,-1
 171 139 l 1,40,-1
 128 139 l 1,41,-1
 128 107 l 1,42,-1
 171 107 l 1,43,-1
 171 64 l 1,32,-1
301 215 m 1,44,-1
 331 245 l 1,45,-1
 361 215 l 1,46,-1
 384 237 l 1,47,-1
 354 267 l 1,48,-1
 384 297 l 1,49,-1
 361 320 l 1,50,-1
 331 290 l 1,51,-1
 301 320 l 1,52,-1
 277 297 l 1,53,-1
 307 267 l 1,54,-1
 277 237 l 1,55,-1
 301 215 l 1,44,-1
EndSplineSet
EndChar

StartChar: shield-account-variant
Encoding: 988583 988583 38
Width: 512
Flags: W
LayerCount: 2
Fore
SplineSet
363 213 m 0,0,1
 378 213 378 213 384 211 c 1,2,-1
 384 314 l 1,3,-1
 224 384 l 1,4,-1
 64 314 l 1,5,-1
 64 209 l 2,6,7
 64 162 64 162 85 117.5 c 128,-1,8
 106 73 106 73 142.5 41.5 c 128,-1,9
 179 10 179 10 224 0 c 1,10,11
 237 2 237 2 258 11 c 1,12,13
 235 44 235 44 235 85 c 0,14,15
 235 120 235 120 252 149.5 c 128,-1,16
 269 179 269 179 298.5 196 c 128,-1,17
 328 213 328 213 363 213 c 0,0,1
363 171 m 0,18,19
 327 171 327 171 302 146 c 128,-1,20
 277 121 277 121 277 85.5 c 128,-1,21
 277 50 277 50 302 25 c 128,-1,22
 327 0 327 0 362.5 0 c 128,-1,23
 398 0 398 0 423 25 c 128,-1,24
 448 50 448 50 448 85.5 c 128,-1,25
 448 121 448 121 423 146 c 128,-1,26
 398 171 398 171 363 171 c 0,18,19
363 141 m 0,27,28
 372 141 372 141 379 134 c 128,-1,29
 386 127 386 127 386 117.5 c 128,-1,30
 386 108 386 108 379 101 c 128,-1,31
 372 94 372 94 362.5 94 c 128,-1,32
 353 94 353 94 346 101 c 128,-1,33
 339 108 339 108 339 117.5 c 128,-1,34
 339 127 339 127 346 134 c 128,-1,35
 353 141 353 141 363 141 c 0,27,28
363 26 m 256,36,37
 349 26 349 26 336.5 33 c 128,-1,38
 324 40 324 40 316 51 c 1,39,40
 317 61 317 61 334 69 c 0,41,42
 349 75 349 75 363 75 c 128,-1,43
 377 75 377 75 392 69 c 0,44,45
 410 61 410 61 410 51 c 1,46,47
 401 40 401 40 389 33 c 128,-1,48
 377 26 377 26 363 26 c 256,36,37
EndSplineSet
EndChar

StartChar: shield-account-variant-outline
Encoding: 988584 988584 39
Width: 512
Flags: W
LayerCount: 2
Fore
SplineSet
363 141 m 0,0,1
 372 141 372 141 379 134 c 128,-1,2
 386 127 386 127 386 117.5 c 128,-1,3
 386 108 386 108 379 101 c 128,-1,4
 372 94 372 94 362.5 94 c 128,-1,5
 353 94 353 94 346 101 c 128,-1,6
 339 108 339 108 339 117.5 c 128,-1,7
 339 127 339 127 346 134 c 128,-1,8
 353 141 353 141 363 141 c 0,0,1
363 75 m 256,9,10
 349 75 349 75 334 69 c 0,11,12
 316 61 316 61 316 51 c 1,13,14
 324 40 324 40 336.5 33 c 128,-1,15
 349 26 349 26 363 26 c 128,-1,16
 377 26 377 26 389 33 c 128,-1,17
 401 40 401 40 410 51 c 1,18,19
 410 61 410 61 392 69 c 0,20,21
 377 75 377 75 363 75 c 256,9,10
384 211 m 1,22,-1
 384 314 l 1,23,-1
 224 384 l 1,24,-1
 64 314 l 1,25,-1
 64 209 l 2,26,27
 64 162 64 162 85 117.5 c 128,-1,28
 106 73 106 73 142.5 41.5 c 128,-1,29
 179 10 179 10 224 0 c 1,30,31
 237 2 237 2 258 11 c 1,32,33
 276 -14 276 -14 303.5 -28.5 c 128,-1,34
 331 -43 331 -43 363 -43 c 0,35,36
 397 -43 397 -43 426.5 -25.5 c 128,-1,37
 456 -8 456 -8 473.5 21.5 c 128,-1,38
 491 51 491 51 491 85 c 0,39,40
 491 133 491 133 460.5 168 c 128,-1,41
 430 203 430 203 384 211 c 1,22,-1
235 85 m 0,42,43
 235 73 235 73 239 51 c 1,44,-1
 224 45 l 1,45,46
 173 61 173 61 140 107 c 128,-1,47
 107 153 107 153 107 209 c 2,48,-1
 107 286 l 1,49,-1
 224 337 l 1,50,-1
 341 286 l 1,51,-1
 341 211 l 1,52,53
 296 203 296 203 265.5 168 c 128,-1,54
 235 133 235 133 235 85 c 0,42,43
363 0 m 0,55,56
 327 0 327 0 302 25 c 128,-1,57
 277 50 277 50 277 85.5 c 128,-1,58
 277 121 277 121 302 146 c 128,-1,59
 327 171 327 171 362.5 171 c 128,-1,60
 398 171 398 171 423 146 c 128,-1,61
 448 121 448 121 448 85.5 c 128,-1,62
 448 50 448 50 423 25 c 128,-1,63
 398 0 398 0 363 0 c 0,55,56
EndSplineSet
EndChar

StartChar: message-flash
Encoding: 988585 988585 40
Width: 512
Flags: W
LayerCount: 2
Fore
SplineSet
469 363 m 2,0,1
 469 380 469 380 456.5 392.5 c 128,-1,2
 444 405 444 405 427 405 c 2,3,-1
 85 405 l 2,4,5
 68 405 68 405 55.5 392.5 c 128,-1,6
 43 380 43 380 43 363 c 2,7,-1
 43 -21 l 1,8,-1
 128 64 l 1,9,-1
 320 64 l 1,10,-1
 320 235 l 1,11,-1
 469 235 l 1,12,-1
 469 363 l 2,0,1
480 107 m 1,13,-1
 433 107 l 1,14,-1
 469 192 l 1,15,-1
 363 192 l 1,16,-1
 363 64 l 1,17,-1
 405 64 l 1,18,-1
 405 -43 l 1,19,-1
 480 107 l 1,13,-1
EndSplineSet
EndChar

StartChar: message-flash-outline
Encoding: 988586 988586 41
Width: 512
Flags: W
LayerCount: 2
Fore
SplineSet
85 81 m 1,0,-1
 85 363 l 1,1,-1
 427 363 l 1,2,-1
 427 235 l 1,3,-1
 469 235 l 1,4,-1
 469 363 l 2,5,6
 469 380 469 380 456.5 392.5 c 128,-1,7
 444 405 444 405 427 405 c 2,8,-1
 85 405 l 2,9,10
 68 405 68 405 55.5 392.5 c 128,-1,11
 43 380 43 380 43 363 c 2,12,-1
 43 -21 l 1,13,-1
 128 64 l 1,14,-1
 320 64 l 1,15,-1
 320 107 l 1,16,-1
 111 107 l 1,17,-1
 85 81 l 1,0,-1
480 107 m 1,18,-1
 433 107 l 1,19,-1
 469 192 l 1,20,-1
 363 192 l 1,21,-1
 363 64 l 1,22,-1
 405 64 l 1,23,-1
 405 -43 l 1,24,-1
 480 107 l 1,18,-1
EndSplineSet
EndChar

StartChar: list-status
Encoding: 988587 988587 42
Width: 512
Flags: W
LayerCount: 2
Fore
SplineSet
352 213 m 1,0,-1
 277 288 l 1,1,-1
 307 318 l 1,2,-1
 352 273 l 1,3,-1
 442 363 l 1,4,-1
 471 333 l 1,5,-1
 352 213 l 1,0,-1
235 299 m 1,6,-1
 43 299 l 1,7,-1
 43 256 l 1,8,-1
 235 256 l 1,9,-1
 235 299 l 1,6,-1
448 162 m 1,10,-1
 418 192 l 1,11,-1
 363 137 l 1,12,-1
 307 192 l 1,13,-1
 277 162 l 1,14,-1
 333 107 l 1,15,-1
 277 51 l 1,16,-1
 307 21 l 1,17,-1
 363 77 l 1,18,-1
 418 21 l 1,19,-1
 448 51 l 1,20,-1
 393 107 l 1,21,-1
 448 162 l 1,10,-1
235 128 m 1,22,-1
 43 128 l 1,23,-1
 43 85 l 1,24,-1
 235 85 l 1,25,-1
 235 128 l 1,22,-1
EndSplineSet
EndChar

StartChar: message-bookmark
Encoding: 988588 988588 43
Width: 512
Flags: W
LayerCount: 2
Fore
SplineSet
427 405 m 2,0,-1
 85 405 l 2,1,2
 68 405 68 405 55.5 392.5 c 128,-1,3
 43 380 43 380 43 363 c 2,4,-1
 43 -21 l 1,5,-1
 128 64 l 1,6,-1
 427 64 l 2,7,8
 444 64 444 64 456.5 76.5 c 128,-1,9
 469 89 469 89 469 107 c 2,10,-1
 469 363 l 2,11,12
 469 380 469 380 456.5 392.5 c 128,-1,13
 444 405 444 405 427 405 c 2,0,-1
405 171 m 1,14,-1
 352 203 l 1,15,-1
 299 171 l 1,16,-1
 299 341 l 1,17,-1
 405 341 l 1,18,-1
 405 171 l 1,14,-1
EndSplineSet
EndChar

StartChar: message-bookmark-outline
Encoding: 988589 988589 44
Width: 512
Flags: W
LayerCount: 2
Fore
SplineSet
384 149 m 1,0,-1
 384 320 l 1,1,-1
 277 320 l 1,2,-1
 277 149 l 1,3,-1
 331 181 l 1,4,-1
 384 149 l 1,0,-1
427 405 m 2,5,-1
 85 405 l 2,6,7
 68 405 68 405 55.5 392.5 c 128,-1,8
 43 380 43 380 43 363 c 2,9,-1
 43 -21 l 1,10,-1
 128 64 l 1,11,-1
 427 64 l 2,12,13
 444 64 444 64 456.5 76.5 c 128,-1,14
 469 89 469 89 469 107 c 2,15,-1
 469 363 l 2,16,17
 469 380 469 380 456.5 392.5 c 128,-1,18
 444 405 444 405 427 405 c 2,5,-1
427 107 m 1,19,-1
 128 107 l 1,20,-1
 85 64 l 1,21,-1
 85 363 l 1,22,-1
 427 363 l 1,23,-1
 427 107 l 1,19,-1
EndSplineSet
EndChar

StartChar: comment-bookmark
Encoding: 988590 988590 45
Width: 512
Flags: W
LayerCount: 2
Fore
SplineSet
427 405 m 2,0,-1
 85 405 l 2,1,2
 68 405 68 405 55.5 392.5 c 128,-1,3
 43 380 43 380 43 363 c 2,4,-1
 43 107 l 2,5,6
 43 89 43 89 55.5 76.5 c 128,-1,7
 68 64 68 64 85 64 c 2,8,-1
 171 64 l 1,9,-1
 171 0 l 2,10,11
 171 -10 171 -10 176.5 -15.5 c 128,-1,12
 182 -21 182 -21 192 -21 c 2,13,-1
 203 -21 l 2,14,15
 211 -21 211 -21 218 -15 c 2,16,-1
 297 64 l 1,17,-1
 427 64 l 2,18,19
 444 64 444 64 456.5 76.5 c 128,-1,20
 469 89 469 89 469 107 c 2,21,-1
 469 363 l 2,22,23
 469 380 469 380 456.5 392.5 c 128,-1,24
 444 405 444 405 427 405 c 2,0,-1
405 171 m 1,25,-1
 352 203 l 1,26,-1
 299 171 l 1,27,-1
 299 341 l 1,28,-1
 405 341 l 1,29,-1
 405 171 l 1,25,-1
EndSplineSet
EndChar

StartChar: comment-bookmark-outline
Encoding: 988591 988591 46
Width: 512
Flags: W
LayerCount: 2
Fore
SplineSet
192 -21 m 2,0,1
 182 -21 182 -21 176.5 -15.5 c 128,-1,2
 171 -10 171 -10 171 0 c 2,3,-1
 171 64 l 1,4,-1
 85 64 l 2,5,6
 68 64 68 64 55.5 76.5 c 128,-1,7
 43 89 43 89 43 107 c 2,8,-1
 43 363 l 2,9,10
 43 380 43 380 55.5 392.5 c 128,-1,11
 68 405 68 405 85 405 c 2,12,-1
 427 405 l 2,13,14
 444 405 444 405 456.5 392.5 c 128,-1,15
 469 380 469 380 469 363 c 2,16,-1
 469 107 l 2,17,18
 469 89 469 89 456.5 76.5 c 128,-1,19
 444 64 444 64 427 64 c 2,20,-1
 297 64 l 1,21,-1
 218 -15 l 2,22,23
 211 -21 211 -21 203 -21 c 2,24,-1
 192 -21 l 2,0,1
213 107 m 1,25,-1
 213 41 l 1,26,-1
 279 107 l 1,27,-1
 427 107 l 1,28,-1
 427 363 l 1,29,-1
 85 363 l 1,30,-1
 85 107 l 1,31,-1
 213 107 l 1,25,-1
384 149 m 1,32,-1
 384 320 l 1,33,-1
 277 320 l 1,34,-1
 277 149 l 1,35,-1
 331 181 l 1,36,-1
 384 149 l 1,32,-1
EndSplineSet
EndChar

StartChar: comment-flash
Encoding: 988592 988592 47
Width: 512
Flags: W
LayerCount: 2
Fore
SplineSet
480 107 m 1,0,-1
 433 107 l 1,1,-1
 469 192 l 1,2,-1
 363 192 l 1,3,-1
 363 64 l 1,4,-1
 405 64 l 1,5,-1
 405 -43 l 1,6,-1
 480 107 l 1,0,-1
320 64 m 1,7,-1
 297 64 l 1,8,-1
 218 -15 l 2,9,10
 211 -21 211 -21 203 -21 c 2,11,-1
 192 -21 l 2,12,13
 182 -21 182 -21 176.5 -15.5 c 128,-1,14
 171 -10 171 -10 171 0 c 2,15,-1
 171 64 l 1,16,-1
 85 64 l 2,17,18
 68 64 68 64 55.5 76.5 c 128,-1,19
 43 89 43 89 43 107 c 2,20,-1
 43 363 l 2,21,22
 43 380 43 380 55.5 392.5 c 128,-1,23
 68 405 68 405 85 405 c 2,24,-1
 427 405 l 2,25,26
 444 405 444 405 456.5 392.5 c 128,-1,27
 469 380 469 380 469 363 c 2,28,-1
 469 235 l 1,29,-1
 320 235 l 1,30,-1
 320 64 l 1,7,-1
EndSplineSet
EndChar

StartChar: comment-flash-outline
Encoding: 988593 988593 48
Width: 512
Flags: W
LayerCount: 2
Fore
SplineSet
480 107 m 1,0,-1
 433 107 l 1,1,-1
 469 192 l 1,2,-1
 363 192 l 1,3,-1
 363 64 l 1,4,-1
 405 64 l 1,5,-1
 405 -43 l 1,6,-1
 480 107 l 1,0,-1
320 64 m 1,7,-1
 297 64 l 1,8,-1
 218 -15 l 2,9,10
 211 -21 211 -21 203 -21 c 2,11,-1
 192 -21 l 2,12,13
 182 -21 182 -21 176.5 -15.5 c 128,-1,14
 171 -10 171 -10 171 0 c 2,15,-1
 171 64 l 1,16,-1
 85 64 l 2,17,18
 68 64 68 64 55.5 76.5 c 128,-1,19
 43 89 43 89 43 107 c 2,20,-1
 43 363 l 2,21,22
 43 380 43 380 55.5 392.5 c 128,-1,23
 68 405 68 405 85 405 c 2,24,-1
 427 405 l 2,25,26
 444 405 444 405 456.5 392.5 c 128,-1,27
 469 380 469 380 469 363 c 2,28,-1
 469 235 l 1,29,-1
 427 235 l 1,30,-1
 427 363 l 1,31,-1
 85 363 l 1,32,-1
 85 107 l 1,33,-1
 213 107 l 1,34,-1
 213 41 l 1,35,-1
 279 107 l 1,36,-1
 320 107 l 1,37,-1
 320 64 l 1,7,-1
EndSplineSet
EndChar

StartChar: motion
Encoding: 988594 988594 49
Width: 512
Flags: W
LayerCount: 2
Fore
SplineSet
149 171 m 2,0,-1
 64 171 l 2,1,2
 55 171 55 171 49 177 c 128,-1,3
 43 183 43 183 43 192 c 128,-1,4
 43 201 43 201 49 207 c 128,-1,5
 55 213 55 213 64 213 c 2,6,-1
 149 213 l 2,7,8
 158 213 158 213 164.5 207 c 128,-1,9
 171 201 171 201 171 192 c 128,-1,10
 171 183 171 183 164.5 177 c 128,-1,11
 158 171 158 171 149 171 c 2,0,-1
128 277 m 0,12,13
 128 286 128 286 121.5 292.5 c 128,-1,14
 115 299 115 299 107 299 c 2,15,-1
 85 299 l 2,16,17
 77 299 77 299 70.5 292.5 c 128,-1,18
 64 286 64 286 64 277.5 c 128,-1,19
 64 269 64 269 70.5 262.5 c 128,-1,20
 77 256 77 256 85 256 c 2,21,-1
 107 256 l 2,22,23
 115 256 115 256 121.5 262.5 c 128,-1,24
 128 269 128 269 128 277 c 0,12,13
469 192 m 256,25,26
 469 163 469 163 455 138.5 c 128,-1,27
 441 114 441 114 416.5 99.5 c 128,-1,28
 392 85 392 85 363 85 c 2,29,-1
 85 85 l 2,30,31
 77 85 77 85 70.5 91.5 c 128,-1,32
 64 98 64 98 64 106.5 c 128,-1,33
 64 115 64 115 70.5 121.5 c 128,-1,34
 77 128 77 128 85 128 c 2,35,-1
 277 128 l 1,36,37
 263 148 263 148 258 171 c 1,38,-1
 213 171 l 2,39,40
 205 171 205 171 198.5 177 c 128,-1,41
 192 183 192 183 192 192 c 128,-1,42
 192 201 192 201 198.5 207 c 128,-1,43
 205 213 205 213 213 213 c 2,44,-1
 258 213 l 1,45,46
 263 236 263 236 277 256 c 1,47,-1
 171 256 l 2,48,49
 162 256 162 256 155.5 262.5 c 128,-1,50
 149 269 149 269 149 277.5 c 128,-1,51
 149 286 149 286 155.5 292.5 c 128,-1,52
 162 299 162 299 171 299 c 2,53,-1
 363 299 l 2,54,55
 392 299 392 299 416.5 284.5 c 128,-1,56
 441 270 441 270 455 245.5 c 128,-1,57
 469 221 469 221 469 192 c 256,25,26
EndSplineSet
EndChar

StartChar: motion-outline
Encoding: 988595 988595 50
Width: 512
Flags: W
LayerCount: 2
Fore
SplineSet
149 171 m 2,0,-1
 64 171 l 2,1,2
 55 171 55 171 49 177 c 128,-1,3
 43 183 43 183 43 192 c 128,-1,4
 43 201 43 201 49 207 c 128,-1,5
 55 213 55 213 64 213 c 2,6,-1
 149 213 l 2,7,8
 158 213 158 213 164.5 207 c 128,-1,9
 171 201 171 201 171 192 c 128,-1,10
 171 183 171 183 164.5 177 c 128,-1,11
 158 171 158 171 149 171 c 2,0,-1
128 277 m 0,12,13
 128 286 128 286 121.5 292.5 c 128,-1,14
 115 299 115 299 107 299 c 2,15,-1
 85 299 l 2,16,17
 77 299 77 299 70.5 292.5 c 128,-1,18
 64 286 64 286 64 277.5 c 128,-1,19
 64 269 64 269 70.5 262.5 c 128,-1,20
 77 256 77 256 85 256 c 2,21,-1
 107 256 l 2,22,23
 115 256 115 256 121.5 262.5 c 128,-1,24
 128 269 128 269 128 277 c 0,12,13
469 192 m 256,25,26
 469 163 469 163 455 138.5 c 128,-1,27
 441 114 441 114 416.5 99.5 c 128,-1,28
 392 85 392 85 363 85 c 2,29,-1
 85 85 l 2,30,31
 77 85 77 85 70.5 91.5 c 128,-1,32
 64 98 64 98 64 106.5 c 128,-1,33
 64 115 64 115 70.5 121.5 c 128,-1,34
 77 128 77 128 85 128 c 2,35,-1
 277 128 l 1,36,37
 263 148 263 148 258 171 c 1,38,-1
 213 171 l 2,39,40
 205 171 205 171 198.5 177 c 128,-1,41
 192 183 192 183 192 192 c 128,-1,42
 192 201 192 201 198.5 207 c 128,-1,43
 205 213 205 213 213 213 c 2,44,-1
 258 213 l 1,45,46
 263 236 263 236 277 256 c 1,47,-1
 171 256 l 2,48,49
 162 256 162 256 155.5 262.5 c 128,-1,50
 149 269 149 269 149 277.5 c 128,-1,51
 149 286 149 286 155.5 292.5 c 128,-1,52
 162 299 162 299 171 299 c 2,53,-1
 363 299 l 2,54,55
 392 299 392 299 416.5 284.5 c 128,-1,56
 441 270 441 270 455 245.5 c 128,-1,57
 469 221 469 221 469 192 c 256,25,26
427 192 m 256,58,59
 427 218 427 218 408 237 c 128,-1,60
 389 256 389 256 362.5 256 c 128,-1,61
 336 256 336 256 317.5 237 c 128,-1,62
 299 218 299 218 299 192 c 128,-1,63
 299 166 299 166 317.5 147 c 128,-1,64
 336 128 336 128 362.5 128 c 128,-1,65
 389 128 389 128 408 147 c 128,-1,66
 427 166 427 166 427 192 c 256,58,59
EndSplineSet
EndChar
